<svg width="171" height="24" viewBox="0 0 171 24" fill="none" xmlns="http://www.w3.org/2000/svg">
<path fill-rule="evenodd" clip-rule="evenodd" d="M16.1585 5.58827C14.6576 4.27308 12.721 3.54434 10.7132 3.53921C6.08173 3.53921 2.55518 7.4546 2.55518 12.0748C2.55518 16.6949 6.06188 20.5581 10.6537 20.5581C12.6985 20.5452 14.6636 19.7742 16.1585 18.3981L17.4818 20.408C15.6105 22.0027 13.2321 22.9008 10.7595 22.9465C4.87754 23.1227 0.00124523 18.2024 0.00124523 12.1596C-0.0206464 10.725 0.246306 9.30028 0.786636 7.9681C1.32697 6.63593 2.12994 5.42274 3.14903 4.39881C4.16812 3.37488 5.38308 2.56056 6.72353 2.00302C8.06397 1.44549 9.50327 1.15583 10.958 1.15081C12.157 1.10343 13.3531 1.29969 14.4719 1.72739C15.5908 2.1551 16.6085 2.80512 17.462 3.63709L16.1585 5.58827ZM38.4624 12.0487C38.4624 13.4489 38.1828 14.8355 37.6395 16.1292C37.0962 17.4229 36.2998 18.5984 35.2959 19.5885C34.292 20.5787 33.1002 21.3641 31.7885 21.8999C30.4768 22.4358 29.071 22.7116 27.6512 22.7116C26.2315 22.7116 24.8256 22.4358 23.514 21.8999C22.2023 21.3641 21.0105 20.5787 20.0065 19.5885C19.0026 18.5984 18.2063 17.4229 17.663 16.1292C17.1197 14.8355 16.84 13.4489 16.84 12.0487C16.84 10.6484 17.1197 9.26183 17.663 7.96814C18.2063 6.67446 19.0026 5.49898 20.0065 4.50884C21.0105 3.51869 22.2023 2.73326 23.514 2.1974C24.8256 1.66154 26.2315 1.38574 27.6512 1.38574C29.071 1.38574 30.4768 1.66154 31.7885 2.1974C33.1002 2.73326 34.292 3.51869 35.2959 4.50884C36.2998 5.49898 37.0962 6.67446 37.6395 7.96814C38.1828 9.26183 38.4624 10.6484 38.4624 12.0487ZM35.8887 12.0487C35.8887 7.4807 32.4944 3.56531 27.6512 3.56531C22.808 3.56531 19.4138 7.42197 19.4138 12.0487C19.3693 13.143 19.5494 14.2349 19.9434 15.2588C20.3373 16.2828 20.9369 17.2177 21.7062 18.0075C22.4755 18.7973 23.3986 19.4256 24.4202 19.8549C25.4418 20.2841 26.5408 20.5053 27.6512 20.5053C28.7617 20.5053 29.8606 20.2841 30.8822 19.8549C31.9038 19.4256 32.827 18.7973 33.5963 18.0075C34.3656 17.2177 34.9652 16.2828 35.3591 15.2588C35.753 14.2349 35.9331 13.143 35.8887 12.0487ZM95.4364 6.17557C95.387 5.43729 95.0434 4.74829 94.4805 4.25917C93.9176 3.77005 93.1813 3.52059 92.4325 3.56531C90.7916 3.56531 88.9854 4.70077 88.9854 6.53448C88.9854 8.1659 90.5733 9.02729 91.8569 9.52976L93.339 10.1106C96.2634 11.2721 98.4534 12.9101 98.4534 16.4013C98.4771 17.2646 98.3222 18.1236 97.9981 18.9259C97.674 19.7282 97.1875 20.457 96.5683 21.0677C95.9491 21.6783 95.2102 22.1582 94.3968 22.4778C93.5833 22.7975 92.7124 22.9503 91.837 22.927C88.4957 22.927 85.7764 20.5516 85.4588 16.571L88.0657 16.5188C88.0372 17.5423 88.4219 18.5352 89.1353 19.2792C89.8487 20.0231 90.8323 20.4573 91.8701 20.4864H92.0554C92.5768 20.4654 93.089 20.3432 93.5626 20.1268C94.0361 19.9104 94.4617 19.604 94.8151 19.2252C95.1684 18.8463 95.4426 18.4025 95.6219 17.9191C95.8011 17.4357 95.882 16.9221 95.8598 16.4078C95.8598 14.163 94.0866 13.1972 92.3068 12.4467L90.8777 11.8333C88.5288 10.8088 86.3917 9.45146 86.3917 6.54101C86.3917 3.16072 89.3493 1.13776 92.4656 1.13776C94.7681 1.13776 97.4014 2.5212 97.7587 6.1821L95.4364 6.17557ZM142.142 22.4897H139.568V1.60761H142.525C148.877 1.60761 150.842 3.82633 150.842 7.6569C150.842 12.0617 147.534 13.7519 143.617 13.7519H142.142V22.5224V22.4897ZM142.142 11.3961H142.962C145.609 11.3961 148.434 10.9002 148.434 7.57206C148.434 4.24397 145.384 3.92422 142.856 3.92422H142.195L142.142 11.3961ZM152.682 1.60761H163.764V3.996H155.262V9.8691H163.532V12.251H155.262V20.1535H163.777V22.5224H152.695L152.682 1.60761ZM115.63 5.60131C114.131 4.28244 112.193 3.55314 110.184 3.55226C105.553 3.55226 102.026 7.46766 102.026 12.0878C102.026 16.708 105.533 20.5712 110.131 20.5712C112.174 20.5586 114.137 19.7873 115.63 18.4112L116.953 20.4211C115.079 22.0148 112.698 22.9106 110.224 22.9531C104.349 23.1358 99.4658 18.2154 99.4658 12.1727C99.4438 10.7364 99.7114 9.31008 100.253 7.97663C100.795 6.64317 101.599 5.4291 102.621 4.40491C103.642 3.38071 104.859 2.5668 106.202 2.01043C107.545 1.45405 108.986 1.16629 110.442 1.16386C111.642 1.11636 112.839 1.31253 113.959 1.74022C115.079 2.16791 116.098 2.81799 116.953 3.65014L115.63 5.60131ZM58.2587 22.5224H60.8524L59.5688 1.64024H56.1812L52.5223 11.7224C51.6026 14.3327 50.8748 16.6427 50.3521 18.744H50.2595C49.7434 16.5775 49.0421 14.287 48.182 11.7224L44.6753 1.64024H41.2877L39.8519 22.5224H42.386L42.9351 13.5887C43.1204 10.4629 43.2726 6.9717 43.3321 4.36796H43.3917C43.9739 6.84772 44.7944 9.53629 45.7736 12.4728L49.0818 22.3984H51.0667L54.6925 12.2901C55.7313 9.43841 56.5914 6.81509 57.2927 4.36796H57.3788C57.3788 6.97823 57.5309 10.4629 57.6897 13.3669L58.2587 22.5224ZM81.4757 22.5224H84.076L82.7924 1.64024H79.4048L75.7393 11.7224C74.8262 14.3327 74.0918 16.6427 73.5757 18.744H73.4831C72.967 16.5775 72.2591 14.287 71.4056 11.7224L67.8922 1.64024H64.5046L63.0755 22.5224H65.6096L66.1587 13.5887C66.3374 10.4629 66.4896 6.9717 66.5557 4.36796H66.6153C67.1975 6.84772 68.018 9.53629 68.9972 12.4728L72.3054 22.3984H74.2903L77.9227 12.2901C78.9615 9.43841 79.815 6.81509 80.5164 4.36796H80.6619C80.6288 6.97823 80.8141 10.4629 80.9663 13.3669L81.4757 22.5224ZM167.648 4.08083H167.919C168.036 4.06184 168.155 4.08884 168.252 4.15599C168.348 4.22315 168.414 4.32507 168.435 4.43975V4.48543C168.474 4.69331 168.541 4.89518 168.634 5.08579H169.295C169.19 4.8827 169.127 4.66079 169.11 4.43322C169.101 4.29883 169.053 4.16984 168.972 4.06124C168.891 3.95265 168.781 3.86892 168.654 3.81981C168.794 3.78878 168.921 3.71336 169.014 3.60501C169.107 3.49665 169.162 3.36128 169.17 3.21945C169.172 3.11755 169.152 3.01635 169.111 2.92285C169.07 2.82934 169.009 2.74574 168.931 2.67781C168.669 2.52096 168.364 2.45013 168.058 2.47552C167.736 2.4765 167.415 2.50709 167.099 2.56688V5.08579H167.681V4.08083H167.648ZM167.648 2.93884C167.754 2.92922 167.86 2.92922 167.965 2.93884C168.336 2.93884 168.501 3.09546 168.501 3.33038C168.501 3.56531 168.243 3.69582 167.919 3.69582H167.648V2.93884ZM168.025 1.24217C167.689 1.24045 167.355 1.30407 167.044 1.4294C166.733 1.55473 166.45 1.73932 166.211 1.97261C165.972 2.20591 165.781 2.48335 165.651 2.7891C165.521 3.09484 165.453 3.4229 165.451 3.75455C165.477 4.40548 165.756 5.02165 166.23 5.47554C166.703 5.92944 167.336 6.18631 167.997 6.19302C168.657 6.19973 169.295 5.95575 169.778 5.51157C170.261 5.0674 170.553 4.45702 170.592 3.80676V3.75455C170.599 3.09106 170.339 2.4519 169.869 1.97724C169.399 1.50259 168.757 1.2312 168.085 1.22259H168.025V1.24217ZM168.025 1.75117C168.432 1.72942 168.836 1.82752 169.185 2.03296C169.535 2.2384 169.815 2.5419 169.99 2.90479C170.164 3.26769 170.225 3.67356 170.165 4.07072C170.104 4.46788 169.925 4.83835 169.651 5.13496C169.376 5.43156 169.019 5.64088 168.623 5.73625C168.228 5.83161 167.812 5.80872 167.43 5.67047C167.048 5.53223 166.716 5.28489 166.477 4.95996C166.237 4.63504 166.101 4.24722 166.086 3.84591C166.09 3.82209 166.09 3.79795 166.086 3.77413C166.078 3.517 166.12 3.26068 166.212 3.01982C166.304 2.77896 166.442 2.55828 166.621 2.37041C166.799 2.18253 167.013 2.03114 167.25 1.92488C167.488 1.81863 167.744 1.7596 168.005 1.75117H168.025ZM131.569 1.99915C128.188 0.772325 123.702 2.42332 123.239 5.76446C122.795 8.96203 124.747 10.7696 128.862 11.5723C133.137 12.4011 132.647 16.075 131.575 17.3084C129.848 19.2661 127.215 19.4814 125.111 18.7701C122.91 18.2292 121.001 16.8815 119.771 15.0012C118.542 13.1209 118.086 10.8494 118.495 8.6488C119.375 3.52615 123.669 0.98767 128.035 0.98767C126.564 0.819696 125.074 0.939884 123.65 1.34134C122.226 1.7428 120.897 2.41762 119.738 3.32708C118.579 4.23654 117.614 5.36274 116.898 6.64105C116.181 7.91936 115.728 9.32461 115.563 10.7762C115.518 11.1967 115.496 11.6193 115.497 12.0421C115.491 14.0381 116.029 15.9989 117.055 17.7196C118.08 19.4402 119.556 20.8575 121.327 21.8233C123.098 22.789 125.1 23.2676 127.122 23.2091C129.145 23.1506 131.115 22.5572 132.826 21.4908C134.536 20.4245 135.925 18.9244 136.847 17.1474C137.768 15.3704 138.189 13.3819 138.064 11.3897C137.94 9.39758 137.275 7.47499 136.139 5.82302C135.004 4.17104 133.439 2.85038 131.608 1.99915H131.569Z" fill="white"/>
</svg>
