<svg width="110" height="40" viewBox="0 0 110 40" fill="none" xmlns="http://www.w3.org/2000/svg">
<path fill-rule="evenodd" clip-rule="evenodd" d="M36.8247 18.2022C37.0872 17.2298 36.9794 16.4833 36.5013 15.9626C36.0231 15.442 35.1871 15.1816 33.9933 15.1816H29.4128L26.6562 25.4688H28.8739L29.9849 21.324H31.4434C31.7106 21.3103 31.9769 21.3641 32.2179 21.4802C32.3148 21.5406 32.3957 21.6236 32.4536 21.722C32.5114 21.8205 32.5445 21.9316 32.5501 22.0456L32.9483 25.4688H35.3309L34.9459 22.2766C34.8667 21.5638 34.5403 21.1451 33.9668 21.0204C34.6585 20.8292 35.2905 20.4659 35.8039 19.9644C36.2955 19.4788 36.648 18.8703 36.8247 18.2022ZM34.7017 18.2594C34.6545 18.4684 34.5665 18.666 34.4427 18.8409C34.3188 19.0157 34.1616 19.1643 33.9801 19.278C33.5174 19.5192 32.9984 19.6316 32.4775 19.6036H30.4249L31.1443 16.9174H33.1968C33.8414 16.9174 34.2858 17.023 34.5168 17.2408C34.7478 17.4586 34.8249 17.7974 34.7017 18.2594Z" fill="white"/>
<path fill-rule="evenodd" clip-rule="evenodd" d="M43.2088 18.1438L42.9294 19.1844C42.8115 18.8116 42.5641 18.4932 42.232 18.2868C41.845 18.0539 41.3987 17.9385 40.9472 17.9546C40.3135 17.9573 39.6912 18.124 39.141 18.4386C38.5441 18.7798 38.0278 19.2458 37.6274 19.8048C37.1884 20.4086 36.8661 21.0891 36.677 21.8112C36.4821 22.4526 36.4406 23.1309 36.556 23.7912C36.6481 24.3128 36.9283 24.7825 37.3436 25.1112C37.7976 25.4346 38.3466 25.5971 38.9034 25.5732C39.4037 25.5743 39.8984 25.4678 40.3539 25.2609C40.8094 25.0541 41.2151 24.7516 41.5434 24.3742L41.253 25.4566H43.3936L45.356 18.1328L43.2088 18.1438ZM42.232 21.7826C42.0996 22.3823 41.8025 22.9332 41.374 23.3732C41.0014 23.7327 40.5013 23.9297 39.9836 23.921C39.4358 23.921 39.0618 23.7406 38.866 23.3798C38.6702 23.019 38.6614 22.4998 38.844 21.8112C38.9844 21.2059 39.2889 20.651 39.724 20.2074C39.9097 20.0227 40.1301 19.8767 40.3725 19.7777C40.6149 19.6788 40.8746 19.6289 41.1364 19.631C41.6762 19.631 42.0428 19.8165 42.2364 20.1876C42.43 20.5587 42.4286 21.0903 42.232 21.7826Z" fill="white"/>
<path fill-rule="evenodd" clip-rule="evenodd" d="M53.1011 18.1445H46.8443L46.4043 19.7769H50.0453L45.2317 23.9371L44.8203 25.4771H51.2795L51.7195 23.8447H47.8189L52.7051 19.6273L53.1011 18.1445Z" fill="white"/>
<path fill-rule="evenodd" clip-rule="evenodd" d="M59.8698 18.418C59.2927 18.0894 58.6348 17.9293 57.9712 17.956C57.223 17.9489 56.4824 18.1067 55.802 18.418C55.1411 18.7213 54.5592 19.173 54.1014 19.738C53.6253 20.333 53.2804 21.022 53.0894 21.7598C52.8852 22.416 52.8609 23.115 53.019 23.7838C53.1627 24.3356 53.5164 24.8093 54.0046 25.1038C54.5896 25.4329 55.2546 25.5929 55.9252 25.5658C56.6663 25.5725 57.3996 25.4147 58.0724 25.1038C58.7301 24.7993 59.3089 24.3476 59.7642 23.7838C60.2408 23.1882 60.5857 22.4984 60.7762 21.7598C60.9799 21.1043 61.005 20.4064 60.8488 19.738C60.7052 19.1881 60.3544 18.715 59.8698 18.418ZM58.6092 21.7708C58.4784 22.3793 58.1805 22.9393 57.749 23.3878C57.5659 23.5631 57.35 23.7006 57.1137 23.7923C56.8773 23.884 56.6252 23.9282 56.3718 23.9224C55.2454 23.9224 54.8743 23.2052 55.2586 21.7708C55.3916 21.1641 55.691 20.6064 56.1232 20.1604C56.5011 19.8029 57.0045 19.6085 57.5246 19.6192C58.0629 19.6192 58.4295 19.7996 58.6246 20.1604C58.8197 20.5212 58.8145 21.058 58.6092 21.7708Z" fill="white"/>
<path fill-rule="evenodd" clip-rule="evenodd" d="M83.3577 18.1438L83.0783 19.1844C82.9619 18.8108 82.7142 18.4919 82.3809 18.2868C81.9939 18.0539 81.5475 17.9385 81.0961 17.9546C80.463 17.9574 79.8415 18.1241 79.2921 18.4386C78.6945 18.7797 78.1775 19.2457 77.7763 19.8048C77.3373 20.4086 77.015 21.0891 76.8259 21.8112C76.6331 22.453 76.5917 23.1307 76.7049 23.7912C76.7969 24.3128 77.0772 24.7825 77.4925 25.1112C77.9465 25.4346 78.4954 25.5971 79.0523 25.5732C79.5526 25.5743 80.0472 25.4678 80.5027 25.2609C80.9582 25.0541 81.3639 24.7516 81.6923 24.3742L81.4019 25.4566H83.5535L85.5181 18.1328L83.3577 18.1438ZM82.3831 21.7826C82.2493 22.3823 81.9515 22.933 81.5229 23.3732C81.1502 23.7327 80.6502 23.9297 80.1325 23.921C79.5847 23.921 79.2107 23.7406 79.0149 23.3798C78.8191 23.019 78.8103 22.4998 78.9929 21.8112C79.1342 21.2062 79.4385 20.6515 79.8729 20.2074C80.0585 20.0227 80.2789 19.8767 80.5214 19.7777C80.7638 19.6788 81.0235 19.6289 81.2853 19.631C81.8236 19.631 82.1902 19.8165 82.3853 20.1876C82.5804 20.5587 82.5796 21.0903 82.3831 21.7826Z" fill="white"/>
<path fill-rule="evenodd" clip-rule="evenodd" d="M67.542 20.1085L68.092 18.1131C67.8592 18.0087 67.6054 17.9597 67.3506 17.9701C66.8534 17.9706 66.3645 18.097 65.9294 18.3375C65.5337 18.5544 65.1899 18.8547 64.9218 19.2175L65.2078 18.1439H63.0562L61.0762 25.4677H63.2586L64.2838 21.6397C64.4033 21.1283 64.6859 20.6696 65.089 20.3329C65.5014 20.0111 66.0138 19.8445 66.5366 19.8621C66.8869 19.8598 67.2324 19.9444 67.542 20.1085Z" fill="white"/>
<path fill-rule="evenodd" clip-rule="evenodd" d="M75.1443 18.4387C74.7015 18.1058 74.1579 17.935 73.6043 17.9547C73.0597 17.9535 72.5226 18.0825 72.0379 18.3309C71.5568 18.5676 71.1418 18.9198 70.8301 19.3561V19.3099L71.1975 18.1417H69.0657L68.5245 20.1657C68.5245 20.1899 68.5135 20.2119 68.5069 20.2361L66.2695 28.5961H68.4519L69.5739 24.3853C69.6809 24.756 69.9267 25.0713 70.2603 25.2653C70.6519 25.4897 71.0985 25.6002 71.5495 25.5843C72.1833 25.585 72.8069 25.4253 73.3623 25.1201C73.9539 24.7982 74.4653 24.347 74.8583 23.8001C75.2923 23.2047 75.6102 22.533 75.7955 21.8201C75.9902 21.1696 76.0331 20.4832 75.9209 19.8137C75.8378 19.2762 75.5617 18.7874 75.1443 18.4387ZM73.6175 21.8113C73.4867 22.4037 73.1916 22.9473 72.7661 23.3799C72.3924 23.7355 71.8938 23.9299 71.3779 23.9211C70.8382 23.9211 70.4715 23.7385 70.2779 23.3733C70.0843 23.0081 70.0799 22.4779 70.2647 21.7827C70.3995 21.1807 70.6997 20.6283 71.1315 20.1877C71.5064 19.8251 72.0092 19.6251 72.5307 19.6311C73.0609 19.6311 73.4217 19.8247 73.6109 20.2075C73.8001 20.5903 73.8023 21.1293 73.6175 21.8113Z" fill="white"/>
<path fill-rule="evenodd" clip-rule="evenodd" d="M94.5457 18.1467H92.4227L92.0707 18.6329L91.9849 18.7517L91.9475 18.8067L89.1535 22.6897L88.5749 18.1445H86.2935L87.4507 25.0525L84.8965 28.5901H87.1735L87.7917 27.7101L87.8445 27.6353L88.5683 26.6123L88.5881 26.5815L91.8199 22.0033L94.5413 18.1467H94.5457Z" fill="white"/>
<path fill-rule="evenodd" clip-rule="evenodd" d="M21.0506 16.3604L20.3906 18.7628L24.1306 16.3428L21.6908 25.4662H24.1724L27.7738 12L21.0506 16.3604Z" fill="#B0B0B0"/>
<path fill-rule="evenodd" clip-rule="evenodd" d="M17.0274 21.6365L16 25.4689H21.0886C21.0886 25.4689 23.1676 17.6721 23.1698 17.6699L17.0274 21.6365Z" fill="white"/>
</svg>
