<svg width="129" height="26" viewBox="0 0 129 26" fill="none" xmlns="http://www.w3.org/2000/svg">
<path d="M24.1699 6.84111L14.1615 1.07054C13.7399 0.827389 13.2637 0.69496 12.7771 0.685596C12.2888 0.6826 11.8094 0.815912 11.3928 1.07054L1.3879 6.84111C0.968388 7.08248 0.619479 7.42961 0.375957 7.84787C0.132435 8.26614 0.00280756 8.74093 0 9.22492V20.8261C0.00833114 21.3089 0.140282 21.7816 0.383256 22.1989C0.62623 22.6162 0.972117 22.9643 1.3879 23.2099L2.09421 23.5949L5.2726 25.4419V20.081L12.7771 15.7724L20.2817 20.081V25.3783L23.46 23.5313L24.1664 23.1075C24.5859 22.8661 24.9348 22.519 25.1783 22.1007C25.4218 21.6825 25.5515 21.2077 25.5543 20.7237V9.17548C25.5413 8.70071 25.4073 8.23712 25.1651 7.82861C24.9228 7.42011 24.5803 7.08021 24.1699 6.84111ZM20.204 13.9961L14.1262 10.4645C13.7046 10.2214 13.2284 10.0889 12.7418 10.0796C12.2524 10.0761 11.7717 10.2094 11.3539 10.4645L5.23375 13.9961V10.6517L11.527 7.05301C11.8968 6.8451 12.314 6.73589 12.7383 6.73589C13.1626 6.73589 13.5797 6.8451 13.9496 7.05301L20.2252 10.6693L20.204 13.9961Z" fill="white"/>
<path d="M70.0016 13.1176C69.7623 12.5869 69.4229 12.1073 69.0021 11.705C68.5684 11.31 68.0573 11.0093 67.5012 10.8221C66.3047 10.4083 65.0038 10.4083 63.8072 10.8221C63.2506 11.008 62.7393 11.3088 62.3063 11.705C61.8695 12.0932 61.5275 12.5765 61.3069 13.1176C61.0528 13.7002 60.9217 14.329 60.922 14.9646C60.9075 15.6016 61.0392 16.2335 61.3069 16.8117C61.5467 17.3421 61.886 17.8216 62.3063 18.2243C62.7398 18.6206 63.2509 18.9224 63.8072 19.1107C65.0045 19.5202 66.304 19.5202 67.5012 19.1107C68.0581 18.9236 68.5694 18.6216 69.0021 18.2243C69.4407 17.8368 69.7839 17.3534 70.0051 16.8117C70.2559 16.228 70.3868 15.5999 70.39 14.9646C70.3984 14.3278 70.2658 13.6971 70.0016 13.1176ZM65.6542 17.1189C65.2272 17.1196 64.8095 16.9935 64.4541 16.7567C64.0987 16.5199 63.8216 16.1829 63.6579 15.7885C63.4941 15.3941 63.4511 14.9599 63.5342 14.541C63.6174 14.1221 63.823 13.7373 64.1249 13.4353C64.4269 13.1333 64.8117 12.9278 65.2306 12.8446C65.6495 12.7615 66.0837 12.8045 66.4781 12.9683C66.8725 13.132 67.2095 13.4091 67.4463 13.7645C67.6831 14.1199 67.8092 14.5376 67.8085 14.9646C67.8085 15.536 67.5815 16.0839 67.1775 16.4879C66.7735 16.8919 66.2256 17.1189 65.6542 17.1189Z" fill="white"/>
<path d="M58.848 15.7575C58.6895 15.5264 58.5967 15.2567 58.5796 14.977C58.6044 14.7 58.6965 14.4333 58.848 14.2L61.2389 10.7815H58.6114L56.0016 14.3131C55.9733 14.3619 55.9486 14.4126 55.9274 14.4649V6.66016H53.3105V19.2043H55.9274V15.5314C55.9486 15.5814 55.9734 15.6298 56.0016 15.6762L58.6114 19.2078H61.4366L58.848 15.7575Z" fill="white"/>
<path d="M96.7877 6.65161V16.6954H101.866V19.1957H94.0967V6.65161C94.0967 6.65161 96.8089 6.62689 96.7877 6.65161Z" fill="white"/>
<path d="M112.027 6.65039V19.1945H114.45V18.0785C114.584 18.2516 114.74 18.407 114.913 18.5412C115.089 18.7034 115.284 18.8455 115.492 18.965C115.726 19.089 115.97 19.1918 116.223 19.2722C116.497 19.3497 116.781 19.3889 117.067 19.3887C117.646 19.3903 118.221 19.2849 118.762 19.078C119.263 18.8761 119.71 18.5606 120.069 18.1562C120.453 17.7653 120.743 17.2918 120.916 16.7719C121.121 16.2058 121.225 15.6081 121.223 15.0061C121.241 14.4461 121.164 13.8872 120.994 13.3533C120.83 12.8376 120.569 12.3581 120.224 11.9407C119.898 11.5165 119.477 11.1742 118.995 10.9412C118.501 10.6686 117.942 10.5355 117.378 10.5563C116.852 10.5459 116.329 10.6371 115.838 10.8247C115.372 10.9804 114.959 11.2644 114.648 11.644V6.65039H112.027ZM116.53 17.1215C116.103 17.1222 115.686 16.9962 115.33 16.7595C114.975 16.5229 114.698 16.1861 114.534 15.7919C114.37 15.3977 114.327 14.9637 114.41 14.5449C114.493 14.1261 114.698 13.7413 115 13.4392C115.301 13.137 115.686 12.9312 116.104 12.8476C116.523 12.7641 116.957 12.8066 117.351 12.9698C117.746 13.133 118.083 13.4096 118.32 13.7645C118.558 14.1194 118.684 14.5368 118.684 14.9637C118.684 15.5344 118.458 16.0818 118.055 16.4857C117.651 16.8896 117.104 17.117 116.534 17.118L116.53 17.1215Z" fill="white"/>
<path d="M45.0086 19.2341L39.623 6.8418L37.3522 6.88064L32.002 19.2411H35.0038L35.7913 17.274L37.5571 16.257C37.8161 16.0977 38.1147 16.0144 38.4188 16.0168C38.7194 16.0228 39.0136 16.1054 39.2734 16.257L41.2016 17.38L41.9433 19.2411L45.0086 19.2341ZM39.1427 13.8378C38.9134 13.7095 38.6551 13.6421 38.3923 13.6421C38.1295 13.6421 37.8711 13.7095 37.6418 13.8378L36.8896 14.2722L38.3905 10.6912L39.8914 14.2651L39.1427 13.8378Z" fill="white"/>
<path d="M74.6955 12.3098C75.5134 12.3413 76.2881 12.6851 76.8603 13.2704L78.1705 11.9637V11.9249L77.9374 11.6918C77.0075 10.894 75.8144 10.4698 74.5895 10.5017C72.6295 10.5017 71.2805 11.5788 71.2805 13.1574C71.2598 13.4988 71.3312 13.8394 71.4871 14.1438C71.643 14.4482 71.8778 14.7052 72.1669 14.8879C72.9698 15.315 73.806 15.6764 74.6672 15.9685C75.5148 16.2758 75.6278 16.7384 75.4371 17.028C75.3217 17.203 75.1597 17.3423 74.9694 17.4303C74.7791 17.5183 74.5681 17.5514 74.36 17.526C73.5472 17.4856 72.7789 17.143 72.2057 16.5654L70.8955 17.8721L71.1286 18.1051C72.058 18.9043 73.2511 19.3297 74.4765 19.2988C76.4365 19.2988 77.7856 18.2217 77.7856 16.6431C77.7841 16.3048 77.7031 15.9716 77.5491 15.6704C77.3951 15.3692 77.1725 15.1084 76.8991 14.9091C76.3897 14.552 75.8336 14.2668 75.2464 14.0615C74.7932 13.9426 74.354 13.7756 73.9362 13.5635C73.79 13.4845 73.6779 13.3545 73.6213 13.1982C73.5646 13.042 73.5674 12.8703 73.6289 12.716C73.7631 12.5703 73.9293 12.4578 74.1144 12.3873C74.2994 12.3168 74.4984 12.2903 74.6955 12.3098Z" fill="white"/>
<path d="M125.534 12.3098C126.349 12.3419 127.12 12.6858 127.688 13.2704L128.999 11.9637V11.9249L128.765 11.6918C127.836 10.894 126.642 10.4698 125.418 10.5017C123.458 10.5017 122.108 11.5788 122.108 13.1574C122.088 13.4988 122.159 13.8394 122.315 14.1438C122.471 14.4482 122.706 14.7052 122.995 14.8879C123.798 15.315 124.634 15.6764 125.495 15.9685C126.343 16.2758 126.456 16.7384 126.265 17.028C126.151 17.2001 125.992 17.3376 125.805 17.4254C125.618 17.5132 125.411 17.548 125.206 17.526C124.392 17.4854 123.623 17.1429 123.048 16.5654L121.741 17.8721L121.971 18.1051C122.902 18.9019 124.094 19.327 125.319 19.2988C127.282 19.2988 128.628 18.2217 128.628 16.6431C128.628 16.3049 128.548 15.9715 128.394 15.6701C128.241 15.3688 128.018 15.108 127.745 14.9091C127.234 14.552 126.677 14.2668 126.089 14.0615C125.637 13.9419 125.199 13.775 124.782 13.5635C124.635 13.485 124.523 13.3551 124.466 13.1986C124.409 13.0422 124.412 12.8703 124.475 12.716C124.608 12.5715 124.773 12.4597 124.957 12.3893C125.141 12.3189 125.338 12.2917 125.534 12.3098Z" fill="white"/>
<path d="M87.3195 14.9651C87.3331 14.3388 87.2424 13.7146 87.0511 13.1181C86.8658 12.6037 86.5921 12.1257 86.2424 11.7054C85.895 11.3133 85.4592 11.0094 84.9711 10.819C84.4444 10.6133 83.8837 10.5091 83.3183 10.5118C82.69 10.5127 82.0661 10.6165 81.4713 10.819C80.915 11.0057 80.4038 11.3064 79.9704 11.7019C79.5335 12.0901 79.1916 12.5734 78.971 13.1145C78.7169 13.6971 78.5858 14.3259 78.586 14.9615C78.5716 15.5985 78.7033 16.2304 78.971 16.8086C79.2121 17.3382 79.5512 17.8175 79.9704 18.2212C80.3941 18.6304 80.9083 18.9341 81.4713 19.1076C82.0666 19.3081 82.6902 19.4119 83.3183 19.4148C84.0072 19.4075 84.6878 19.2634 85.3207 18.9911C85.8273 18.7613 86.2843 18.435 86.6662 18.0305L85.0523 16.413C84.8442 16.7032 84.5829 16.9512 84.2824 17.1441C83.9984 17.3151 83.6771 17.4147 83.3461 17.4345C83.0151 17.4542 82.6843 17.3934 82.3819 17.2573C82.0796 17.1213 81.8147 16.9139 81.61 16.6531C81.4052 16.3923 81.2668 16.0857 81.2064 15.7597H87.2878V14.9651H87.3195ZM81.2382 14.001C81.311 13.5532 81.5406 13.146 81.8861 12.852C82.2316 12.5581 82.6705 12.3967 83.1241 12.3967C83.5777 12.3967 84.0165 12.5581 84.362 12.852C84.7075 13.146 84.9372 13.5532 85.0099 14.001H81.2382Z" fill="white"/>
<path d="M48.7375 10.7693V12.1148C48.9813 11.6373 49.3392 11.2273 49.7793 10.9211C50.2155 10.6454 50.726 10.511 51.2414 10.5362H51.7005C51.8449 10.5403 51.9878 10.5665 52.1243 10.6139V12.9977C51.7746 12.7517 51.3581 12.6186 50.9306 12.6163C50.648 12.6154 50.3681 12.6702 50.1067 12.7777C49.8454 12.8852 49.6079 13.0432 49.4077 13.2427C49.2076 13.4422 49.0488 13.6792 48.9405 13.9401C48.8321 14.2011 48.7764 14.4809 48.7764 14.7635V15.657H48.7375V19.2344H46.1348V10.7587C46.1348 10.7587 48.7728 10.8011 48.7375 10.7693Z" fill="white"/>
<path d="M110.681 19.1966V14.888C110.682 14.2672 110.617 13.6481 110.487 13.041C110.394 12.5365 110.184 12.061 109.873 11.6531C109.56 11.2676 109.147 10.9755 108.679 10.8091C108.072 10.6045 107.433 10.5124 106.793 10.5372H106.716C105.491 10.5083 104.298 10.9335 103.368 11.7308L103.138 11.9604V11.9992L104.445 13.3094C104.996 12.7156 105.755 12.3564 106.564 12.3065H106.603C107.036 12.3055 107.457 12.4553 107.793 12.7303C107.96 12.8624 108.092 13.0328 108.18 13.227C108.267 13.4213 108.306 13.6336 108.294 13.8462H107.1C106.675 13.8461 106.251 13.8852 105.833 13.9628C105.417 14.0308 105.006 14.1204 104.6 14.2312C104.233 14.3514 103.884 14.52 103.562 14.7327C103.258 14.9576 103.009 15.2471 102.831 15.5802C102.66 15.9469 102.568 16.3457 102.561 16.7503C102.554 17.155 102.633 17.5565 102.792 17.9287C102.943 18.2448 103.167 18.5207 103.445 18.7339C103.73 18.9625 104.056 19.1329 104.406 19.2354C104.781 19.345 105.17 19.3973 105.561 19.3908C106.089 19.3852 106.611 19.281 107.1 19.0835C107.591 18.8969 108.009 18.5593 108.294 18.1194V19.1789L110.681 19.1966ZM108.255 15.665C108.216 16.1858 107.977 16.6713 107.589 17.0211C107.201 17.3708 106.694 17.558 106.172 17.5438C105.208 17.5438 104.784 17.0847 104.784 16.5832C104.784 15.5449 106.708 15.5237 107.863 15.5237H108.248L108.255 15.665Z" fill="white"/>
</svg>
