<svg width="129" height="26" viewBox="0 0 129 26" fill="none" xmlns="http://www.w3.org/2000/svg">
<path d="M13.5116 13.9407H13.8807C17.3904 13.9407 20.9 13.9407 24.4041 13.9407C25.3242 13.9407 26.2389 14.0013 27.159 14.0399C27.2945 14.0488 27.429 14.0691 27.5612 14.1005C27.8146 14.1666 27.8697 14.2547 27.7705 14.5082C27.6963 14.7191 27.5944 14.9192 27.4675 15.1032C27.159 15.544 26.8339 15.9682 26.5033 16.3925C24.6668 18.7433 22.8302 21.0959 20.9937 23.4504C20.5033 24.0675 19.9689 24.657 19.4675 25.2686C19.3658 25.3998 19.2367 25.5072 19.0892 25.5833C18.9417 25.6595 18.7794 25.7025 18.6135 25.7094C17.776 25.77 16.9606 25.8691 16.1066 25.8857C14.1232 25.9242 12.1342 25.9408 10.1562 25.9242C9.15898 25.9242 8.16174 25.8196 7.17 25.759H7.1094C6.91194 25.7627 6.71732 25.7116 6.54713 25.6114C6.37693 25.5113 6.23781 25.3659 6.14521 25.1915C5.41243 23.9573 4.63557 22.7507 3.94136 21.5055C2.9386 19.7424 1.97442 17.9517 0.999214 16.1721C0.844945 15.8911 0.723729 15.5881 0.569459 15.3071C0.491058 15.1729 0.445678 15.022 0.437057 14.8668C0.428436 14.7116 0.456822 14.5566 0.519875 14.4145C0.971665 13.2685 1.37938 12.1115 1.8477 10.971C3.0488 8.05084 4.27193 5.13621 5.48956 2.21608C5.55259 2.07523 5.64242 1.94798 5.75403 1.84142C5.89728 1.7147 5.97441 1.73123 6.10113 1.87448C6.19284 1.97561 6.27579 2.08436 6.34907 2.19955C6.97717 3.17476 7.62179 4.14447 8.21684 5.14172C9.56119 7.37314 10.8725 9.6266 12.2058 11.8635C12.608 12.5633 13.0653 13.2465 13.5116 13.9407Z" fill="white"/>
<path d="M14.5672 0.199219L20.2145 0.292882C20.4129 0.292882 20.6057 0.331453 20.7985 0.325943C20.9168 0.319345 21.0348 0.342636 21.1417 0.393671C21.2486 0.444706 21.3409 0.521841 21.4101 0.617956C21.7083 0.990087 21.9861 1.37818 22.2421 1.7805C23.5093 3.87785 24.7673 5.98071 26.0162 8.08908C26.5065 8.91003 26.9748 9.74199 27.4432 10.5795C27.5759 10.8283 27.6954 11.0839 27.8013 11.3453C27.844 11.4439 27.8737 11.5476 27.8894 11.6538C27.928 11.8963 27.8894 11.9899 27.6415 12.034C27.3084 12.1087 26.969 12.1511 26.6277 12.1607C24.9749 12.1607 23.322 12.1607 21.6415 12.1607C21.3884 12.1493 21.1363 12.1217 20.8867 12.0781C20.7358 12.0582 20.5913 12.0042 20.4644 11.9202C20.3374 11.8362 20.2312 11.7244 20.1539 11.5932C19.7187 10.899 19.2724 10.2103 18.8536 9.50507C18.4349 8.79983 17.9831 8.00093 17.5644 7.2461C17.5261 7.15418 17.4596 7.07684 17.3744 7.02532C17.2892 6.9738 17.1897 6.95078 17.0906 6.9596C15.6801 6.9596 14.2751 6.9596 12.8647 6.9596C12.4955 6.9596 12.1264 6.89348 11.7628 6.85492C11.6549 6.84519 11.5514 6.80823 11.4617 6.74752C11.3721 6.68681 11.2994 6.60432 11.2504 6.5078C10.3743 5.00917 9.48727 3.51605 8.62226 2.0119C8.42511 1.65901 8.25742 1.29044 8.12088 0.909968C8.00518 0.584897 8.0713 0.480212 8.41289 0.430624C8.73853 0.370964 9.06821 0.335972 9.39912 0.325943C11.1897 0.254317 12.9969 0.226767 14.5672 0.199219Z" fill="white"/>
<path d="M94.6015 8.74056V8.34937C94.6015 6.39343 94.6015 4.44301 94.6015 2.48707C94.6097 2.06792 94.6484 1.64991 94.7172 1.23637C94.7562 1.02293 94.8512 0.823697 94.9925 0.659102C95.1339 0.494506 95.3165 0.370472 95.5216 0.299723C95.6309 0.258201 95.7481 0.24137 95.8647 0.250432C95.9813 0.259494 96.0945 0.294225 96.1961 0.352141C96.2977 0.410058 96.3853 0.489724 96.4525 0.585439C96.5197 0.681153 96.565 0.790547 96.585 0.905787C96.6554 1.35993 96.6959 1.81823 96.7062 2.2777C96.7502 5.78186 96.7907 9.28785 96.8274 12.7957C96.8274 14.4486 96.8604 16.1566 96.866 17.837C96.8633 17.9138 96.8777 17.9902 96.9082 18.0608C96.9387 18.1313 96.9845 18.1941 97.0423 18.2448C97.2509 18.4368 97.446 18.643 97.6263 18.8618C97.7654 19.0286 97.8804 19.2141 97.9679 19.4128C98.0233 19.5543 98.0442 19.7069 98.0287 19.858C98.0132 20.0092 97.9618 20.1544 97.8787 20.2816C97.7957 20.4088 97.6835 20.5144 97.5514 20.5894C97.4193 20.6645 97.2712 20.7069 97.1194 20.7131C96.7756 20.7295 96.4356 20.6349 96.1497 20.4431C95.8091 20.2292 95.5195 19.9434 95.3012 19.6057C95.158 19.4018 95.0202 19.1924 94.866 18.961C94.7172 19.1208 94.5795 19.2585 94.4527 19.4073C93.694 20.2401 92.6451 20.7507 91.5216 20.8343C90.7538 20.9271 89.9768 20.9123 89.2131 20.7902C88.577 20.6942 87.9703 20.458 87.4367 20.0988C86.9031 19.7396 86.456 19.2663 86.1277 18.7131C85.6451 18.012 85.3251 17.212 85.191 16.3715C85.1418 16.0061 85.1142 15.6381 85.1084 15.2695C85.1084 14.3108 85.1084 13.3522 85.1084 12.3935C85.1272 10.914 85.7199 9.49959 86.7613 8.44854C87.2949 7.9023 87.9735 7.51997 88.7172 7.34661C90.1136 6.91171 91.621 7.00384 92.9541 7.60556C93.2883 7.78037 93.6072 7.98311 93.9073 8.21163C94.1332 8.36039 94.3315 8.53119 94.6015 8.74056ZM87.2957 13.8701C87.3233 14.5423 87.3398 15.0271 87.3618 15.523C87.393 16.0257 87.5235 16.5173 87.7457 16.9694C87.9679 17.4214 88.2775 17.8249 88.6566 18.1566C88.8452 18.3413 89.0654 18.4906 89.3067 18.5974C90.228 19.0269 91.2786 19.088 92.2434 18.7682C92.9009 18.5099 93.4704 18.0685 93.8845 17.4962C94.2986 16.9239 94.5398 16.2448 94.5795 15.5395C94.607 14.5863 94.5795 13.6276 94.5795 12.669C94.5544 11.6279 94.121 10.6384 93.3728 9.91412C93.1287 9.66353 92.8284 9.47467 92.4968 9.36315C91.7497 9.08831 90.9407 9.02725 90.1607 9.18684C89.5168 9.27923 88.9197 9.57678 88.4583 10.0353C87.9099 10.602 87.5484 11.3231 87.4224 12.1015C87.2957 12.7241 87.2957 13.3907 87.2957 13.8701Z" fill="white"/>
<path d="M73.6691 19.3799C73.6691 20.2229 73.6691 20.9997 73.6691 21.7821C73.6691 22.6527 73.6416 23.5232 73.614 24.3882C73.6201 24.8323 73.4677 25.264 73.1843 25.6058C73.0903 25.7384 72.9537 25.8348 72.7973 25.8789C72.641 25.923 72.4742 25.9122 72.3248 25.8483C72.0879 25.7601 71.8509 25.6885 71.592 25.6003C71.5534 19.6774 71.5204 13.771 71.4873 7.84814C71.7346 7.72589 71.9884 7.61737 72.2476 7.52307C72.3635 7.47478 72.4889 7.45353 72.6143 7.46093C72.7396 7.46834 72.8616 7.50421 72.971 7.56582C73.0804 7.62743 73.1743 7.71315 73.2457 7.81649C73.317 7.91982 73.3638 8.03804 73.3826 8.16219C73.4095 8.29576 73.4482 8.42668 73.4983 8.55338C73.57 8.71316 73.6801 8.74071 73.8289 8.64704C73.8978 8.60851 73.9593 8.55815 74.0107 8.49828C74.4111 8.06709 74.9023 7.73023 75.4487 7.51205C76.2016 7.15379 77.0372 7.00531 77.8675 7.08229C78.4716 7.12605 79.0698 7.23128 79.6526 7.39634C80.2738 7.57718 80.8476 7.89257 81.3332 8.32012C81.8189 8.74766 82.2044 9.27688 82.4625 9.87019C82.8496 10.7156 83.0882 11.6214 83.1677 12.5479C83.3009 13.8347 83.2452 15.134 83.0024 16.4047C82.8645 17.154 82.6059 17.876 82.2366 18.5424C81.8931 19.1663 81.4052 19.6989 80.8139 20.0957C80.2225 20.4925 79.5447 20.7421 78.8372 20.8234C77.946 20.9573 77.0375 20.9218 76.1595 20.7188C75.6064 20.5913 75.0828 20.3594 74.6168 20.0356L73.6691 19.3799ZM73.5259 13.8702C73.5134 14.628 73.6024 15.384 73.7903 16.1182C73.9896 16.919 74.4231 17.6422 75.0355 18.1953C75.4156 18.5375 75.8861 18.7632 76.3909 18.8455C77.0479 18.9401 77.716 18.9271 78.3688 18.8069C78.7562 18.7375 79.1166 18.562 79.4102 18.3C80.2393 17.5982 80.7855 16.6193 80.9473 15.5452C81.0832 14.6957 81.0981 13.8313 80.9914 12.9777C80.9214 12.2449 80.7218 11.5304 80.4019 10.8674C80.1949 10.4305 79.8872 10.0489 79.5041 9.75386C79.121 9.45887 78.6734 9.25894 78.198 9.17046C77.6914 9.05965 77.1691 9.03914 76.6553 9.10985C76.0853 9.16056 75.5408 9.37024 75.084 9.71504C74.6272 10.0598 74.2764 10.5259 74.0713 11.0603C73.7127 11.9617 73.5258 12.9222 73.5204 13.8923L73.5259 13.8702Z" fill="white"/>
<path d="M67.0602 19.4062C66.8009 19.473 66.5671 19.6148 66.388 19.8139C66.033 20.1356 65.6171 20.3828 65.1649 20.5412C64.3658 20.8591 63.5055 20.9939 62.6474 20.9357C61.7893 20.8776 60.9552 20.6279 60.2062 20.2051C59.6136 19.8792 59.1188 19.4009 58.773 18.8197C58.4272 18.2386 58.243 17.5755 58.2393 16.8993C58.2144 16.4805 58.2422 16.0604 58.3219 15.6486C58.4859 14.8748 58.9392 14.1929 59.5892 13.7422C60.504 13.0429 61.6122 12.6427 62.7627 12.5962C64.0685 12.5962 65.3798 12.5246 66.6856 12.4915C66.7847 12.4915 66.8784 12.4915 66.9776 12.4915C67.0807 11.9322 67.0219 11.355 66.8081 10.8279C66.5944 10.3009 66.2345 9.84581 65.771 9.51628C65.3995 9.25884 64.9611 9.11524 64.5093 9.10305C63.2771 9.02573 62.0578 9.39112 61.0712 10.1334C60.939 10.2325 60.8288 10.3593 60.7021 10.4639C60.5744 10.5828 60.4361 10.6898 60.2889 10.7835C60.2224 10.835 60.1463 10.8727 60.0651 10.8942C59.9838 10.9157 59.899 10.9208 59.8158 10.9089C59.7326 10.8971 59.6525 10.8687 59.5805 10.8254C59.5084 10.7821 59.4458 10.7247 59.3963 10.6568C59.2418 10.4807 59.1155 10.2819 59.0217 10.0672C58.9433 9.90156 58.9182 9.71566 58.9497 9.53511C58.9813 9.35457 59.068 9.18823 59.198 9.05897C59.3265 8.91212 59.4665 8.77578 59.6167 8.65126C60.5449 7.88158 61.6544 7.36191 62.8398 7.1416C63.3055 7.07815 63.7767 7.06707 64.2448 7.10855C65.0461 7.14271 65.835 7.31804 66.5754 7.62646C67.3979 7.93624 68.0887 8.51996 68.5313 9.27936C68.7831 9.76601 68.9525 10.291 69.0327 10.8331C69.2163 12.0011 69.301 13.1825 69.2861 14.3648C69.2861 15.6706 69.2861 16.9819 69.2861 18.2877C69.2696 18.7564 69.2255 19.2237 69.1539 19.6872C69.143 19.8797 69.074 20.0644 68.9559 20.2168C68.8379 20.3693 68.6764 20.4824 68.4927 20.5412C68.42 20.5669 68.3439 20.5818 68.2668 20.5852C67.9992 20.574 67.7426 20.4751 67.5366 20.3039C67.3306 20.1327 67.1864 19.8986 67.1263 19.6376C67.1124 19.5583 67.0902 19.4808 67.0602 19.4062ZM67.0217 14.5191C66.9813 14.5152 66.9408 14.5152 66.9004 14.5191C65.6332 14.5191 64.366 14.486 63.0988 14.5191C62.5493 14.531 62.0122 14.6848 61.5396 14.9654C61.2858 15.0935 61.062 15.2737 60.8826 15.4942C60.7032 15.7147 60.5723 15.9706 60.4985 16.2451C60.4247 16.5196 60.4095 16.8066 60.4541 17.0874C60.4987 17.3681 60.602 17.6363 60.7572 17.8745C60.8921 18.131 61.0856 18.352 61.3221 18.5196C61.5586 18.6871 61.8313 18.7965 62.1181 18.8387C62.9147 18.9241 63.7182 18.9241 64.5148 18.8387C64.807 18.8122 65.0886 18.7158 65.3357 18.5577C65.7164 18.3169 66.0582 18.0197 66.3495 17.6761C66.5722 17.4049 66.7389 17.0922 66.8398 16.756C66.9925 16.0207 67.0536 15.2694 67.0217 14.5191Z" fill="white"/>
<path d="M101.451 14.8726C101.368 15.0564 101.354 15.2637 101.412 15.4567C101.555 16.3499 101.951 17.1834 102.552 17.8589C103.074 18.4406 103.801 18.7963 104.58 18.8506C105.026 18.9002 105.478 18.9112 105.924 18.9278C106.454 18.9456 106.979 18.8281 107.451 18.5862L108.982 17.8534C109.115 17.7939 109.251 17.7424 109.39 17.6991C109.568 17.6397 109.762 17.6446 109.937 17.713C110.112 17.7815 110.258 17.9091 110.349 18.0738C110.464 18.2733 110.513 18.504 110.491 18.7333C110.468 18.9626 110.374 19.179 110.222 19.352C110.195 19.3823 110.166 19.41 110.134 19.4347C109.159 20.1289 108.156 20.768 106.894 20.7901C105.889 20.8259 104.883 20.8093 103.88 20.7405C102.911 20.6683 101.992 20.2813 101.263 19.6385C100.158 18.6801 99.456 17.3402 99.2963 15.8864C99.1052 14.4713 99.1293 13.0354 99.3679 11.6274C99.4911 10.8682 99.7732 10.1435 100.196 9.50072C100.618 8.85795 101.172 8.3116 101.82 7.89739C102.435 7.4958 103.138 7.24651 103.869 7.17012C105.096 7.02438 106.339 7.15041 107.511 7.53926C108.143 7.73968 108.722 8.07794 109.207 8.52959C109.692 8.98124 110.071 9.535 110.316 10.1509C110.68 11.0261 110.887 11.9586 110.927 12.9057C110.94 13.1008 110.931 13.2967 110.9 13.4897C110.829 13.8477 110.636 14.1703 110.355 14.4031C110.074 14.6359 109.722 14.7648 109.357 14.768C108.745 14.8065 108.128 14.8176 107.511 14.8231C105.726 14.8231 103.935 14.8231 102.145 14.8231C101.913 14.8286 101.682 14.8561 101.451 14.8726ZM101.324 12.8451H108.784C108.663 11.9414 108.343 11.0758 107.847 10.3106C107.506 9.78881 106.981 9.41494 106.376 9.26379C105.751 9.10212 105.102 9.04993 104.459 9.10952C103.996 9.15137 103.549 9.2994 103.152 9.54211C102.755 9.78482 102.42 10.1157 102.172 10.509C101.721 11.2159 101.432 12.0135 101.324 12.8451Z" fill="white"/>
<path d="M121.185 12.52C121.218 12.0423 121.187 11.5622 121.091 11.093C120.962 10.5764 120.678 10.1117 120.277 9.76113C119.876 9.41056 119.378 9.19088 118.849 9.13153C118.259 9.00807 117.648 9.01978 117.063 9.16577C116.478 9.31176 115.934 9.58825 115.471 9.97451C115.251 10.1563 115.03 10.3382 114.805 10.5255C114.581 10.7022 114.315 10.818 114.033 10.8616C113.859 10.899 113.677 10.8686 113.524 10.7764C113.372 10.6843 113.26 10.5374 113.212 10.3657C113.136 10.1686 113.109 9.95625 113.132 9.74632C113.155 9.5364 113.228 9.33503 113.345 9.15908C113.596 8.78611 113.92 8.46758 114.298 8.22243C115.472 7.40994 116.883 7.01069 118.309 7.08744C119.317 7.11608 120.306 7.37224 121.201 7.83676C121.74 8.09949 122.204 8.4945 122.549 8.98492C122.894 9.47533 123.109 10.0452 123.174 10.6412C123.27 11.4164 123.325 12.1962 123.339 12.9773C123.367 14.8451 123.339 16.7073 123.339 18.5751C123.335 18.9735 123.304 19.3712 123.245 19.7652C123.213 19.9701 123.114 20.1586 122.964 20.3012C122.813 20.4438 122.62 20.5324 122.413 20.5531C122.22 20.5853 122.021 20.5564 121.844 20.4706C121.667 20.3847 121.522 20.246 121.427 20.0738C121.317 19.8864 121.24 19.6881 121.141 19.4732C121.075 19.5063 121.003 19.5338 120.942 19.5724L119.725 20.3327C119.251 20.6255 118.706 20.7818 118.149 20.7845C117.414 20.7845 116.68 20.7845 115.945 20.7845C115.394 20.7789 114.858 20.606 114.408 20.2886C113.657 19.826 113.077 19.1318 112.755 18.3107C112.402 17.3794 112.359 16.359 112.634 15.4016C112.792 14.854 113.082 14.3536 113.479 13.9444C113.876 13.5351 114.367 13.2295 114.909 13.0544C115.564 12.8294 116.246 12.6905 116.937 12.6412C118.226 12.52 119.515 12.5365 120.794 12.5255L121.185 12.52ZM121.185 14.3492C119.835 14.3933 118.518 14.4208 117.207 14.4759C116.784 14.4913 116.368 14.5828 115.978 14.7459C115.658 14.8559 115.373 15.0474 115.15 15.3016C114.926 15.5557 114.773 15.8636 114.705 16.1949C114.673 16.3363 114.651 16.48 114.639 16.6247C114.595 17.8368 115.03 18.3492 115.89 18.6633C116.784 19.0009 117.762 19.0472 118.683 18.7955C119.233 18.6683 119.738 18.397 120.148 18.0097C120.557 17.6224 120.856 17.1329 121.014 16.5916C121.186 15.8611 121.241 15.1081 121.179 14.3602L121.185 14.3492Z" fill="white"/>
<path d="M47.3395 8.60578C47.4236 8.60135 47.5056 8.57768 47.5792 8.53661C47.6527 8.49554 47.7159 8.43815 47.7638 8.36886C48.4283 7.74103 49.2644 7.32488 50.166 7.17326C50.6084 7.10168 51.0569 7.074 51.5048 7.09061C52.2384 7.10806 52.965 7.23813 53.6591 7.47629C54.3358 7.69557 54.9108 8.15131 55.2789 8.76005C55.6923 9.36405 55.9928 10.0379 56.166 10.749C56.2393 11.1439 56.2853 11.5434 56.3037 11.9446C56.3974 14.1485 56.4635 16.3524 56.4249 18.5563C56.4249 18.8979 56.3863 19.2395 56.3643 19.5811C56.3529 19.7373 56.307 19.889 56.2298 20.0253C56.1526 20.1616 56.0461 20.2791 55.918 20.3693C55.7899 20.4594 55.6434 20.52 55.4891 20.5466C55.3347 20.5732 55.1764 20.5652 55.0255 20.5232L54.7996 20.4626C54.7074 20.443 54.6236 20.3955 54.5595 20.3265C54.4954 20.2574 54.4541 20.1703 54.4414 20.0769C54.3833 19.76 54.3446 19.4399 54.3257 19.1183C54.2762 17.4929 54.2486 15.862 54.1935 14.2312C54.1605 13.3441 54.0888 12.457 54.0282 11.57C54.0282 11.4047 53.9786 11.2449 53.9511 11.0796C53.7582 9.97769 53.0034 9.42672 51.9952 9.1898C51.271 9.0147 50.5155 9.0147 49.7913 9.1898C49.2279 9.32213 48.708 9.59726 48.2817 9.98871C47.9381 10.3137 47.7083 10.7406 47.626 11.2063C47.4756 11.8943 47.3963 12.5959 47.3891 13.3C47.345 15.0576 47.312 16.8152 47.2624 18.5728C47.2512 18.9527 47.2181 19.3317 47.1632 19.7078C47.1228 19.9384 47.0139 20.1515 46.8508 20.3195C46.6878 20.4876 46.4779 20.6027 46.2486 20.6499C46.1341 20.6672 46.0171 20.6438 45.918 20.5838C45.7237 20.4783 45.5582 20.3267 45.4362 20.1422C45.3142 19.9577 45.2394 19.7461 45.2183 19.526C45.1798 18.8703 45.1191 18.2202 45.1191 17.5645C45.1191 15.0852 45.1191 12.6058 45.1191 10.1265C45.1191 9.57548 45.1687 9.02451 45.2183 8.42947C45.2299 8.19518 45.3228 7.97226 45.481 7.79908C45.6392 7.6259 45.8528 7.5133 46.0851 7.48067C46.3174 7.44805 46.5538 7.49744 46.7536 7.62033C46.9534 7.74323 47.1041 7.93195 47.1797 8.15398C47.2459 8.30825 47.2899 8.46253 47.3395 8.60578Z" fill="white"/>
<path d="M38.2593 20.9493C37.6115 20.9377 36.9661 20.8676 36.331 20.7399C36.1324 20.6967 35.9386 20.634 35.7524 20.5526C35.0946 20.2744 34.4729 19.9174 33.9012 19.4892C33.7656 19.3917 33.6384 19.283 33.521 19.1642C33.3702 18.9913 33.2605 18.7864 33.2004 18.565C33.1403 18.3435 33.1312 18.1113 33.1739 17.8859C33.1821 17.8374 33.1989 17.7908 33.2235 17.7482C33.3567 17.5569 33.5496 17.4152 33.772 17.3454C33.9943 17.2756 34.2336 17.2816 34.4522 17.3625C34.6425 17.4833 34.8264 17.6138 35.0031 17.7537C36.0578 18.5664 37.3578 18.9958 38.6891 18.9713C39.1889 18.9723 39.6811 18.8493 40.1216 18.6132C40.4059 18.4678 40.642 18.2432 40.8014 17.9665C40.9608 17.6898 41.0366 17.3728 41.0196 17.0539C41.0047 16.7191 40.8606 16.4031 40.6174 16.1724C40.2083 15.7785 39.7226 15.4728 39.1905 15.2743C38.2538 14.8831 37.3117 14.5085 36.3861 14.0897C35.9008 13.8612 35.4346 13.594 34.9921 13.2908C34.6173 13.0478 34.3113 12.7122 34.1039 12.3166C33.8964 11.9209 33.7943 11.4784 33.8075 11.0319C33.7935 10.6023 33.8212 10.1723 33.8902 9.7481C33.9912 9.20136 34.238 8.69206 34.6046 8.27406C34.9712 7.85606 35.4439 7.54488 35.9728 7.37343C36.4662 7.18643 36.988 7.08578 37.5155 7.07591C38.4438 7.02841 39.3736 7.12884 40.2703 7.37343C41.1643 7.64314 41.9717 8.14281 42.6119 8.82248C42.755 8.94255 42.8585 9.10312 42.9086 9.28308C42.9588 9.46304 42.9533 9.65396 42.8929 9.83075C42.8474 9.99108 42.7548 10.134 42.6271 10.2411C42.4994 10.3482 42.3425 10.4145 42.1767 10.4313C41.8231 10.4768 41.4644 10.4031 41.1574 10.2219C40.9425 10.1062 40.7442 9.96298 40.5403 9.83075C39.7336 9.27523 38.7627 9.00917 37.7855 9.07592C37.4003 9.09434 37.024 9.19783 36.6836 9.37896C36.4997 9.47211 36.3393 9.60583 36.2147 9.77003C36.09 9.93422 36.0043 10.1246 35.9639 10.3268C35.9236 10.5289 35.9297 10.7376 35.9819 10.9371C36.034 11.1365 36.1308 11.3216 36.2648 11.4781C36.5073 11.7604 36.8132 11.9813 37.1574 12.1228C37.9122 12.4699 38.6725 12.795 39.4384 13.1145C40.1372 13.3873 40.8149 13.7114 41.4659 14.0842C41.6588 14.2054 41.8406 14.3322 42.0169 14.4699C42.421 14.7808 42.7455 15.1831 42.9639 15.6438C43.1823 16.1045 43.2882 16.6104 43.2731 17.1201C43.269 18.031 42.9297 18.9085 42.32 19.5853C41.7103 20.262 40.8729 20.6907 39.9673 20.7895C39.3998 20.8722 38.8103 20.8942 38.2593 20.9493Z" fill="white"/>
<path d="M127.724 9.62711C127.724 12.2552 127.724 14.8833 127.724 17.5115C127.718 17.6111 127.731 17.711 127.763 17.8056C127.795 17.9001 127.846 17.9874 127.912 18.0624C128.126 18.3053 128.324 18.5611 128.507 18.8283C128.684 19.0845 128.829 19.3622 128.937 19.6547C129.135 20.2057 128.854 20.6244 128.242 20.7016C127.959 20.7428 127.67 20.7142 127.4 20.6182C127.13 20.5221 126.888 20.3616 126.694 20.1506C126.21 19.7006 125.887 19.1046 125.774 18.4536C125.67 17.7788 125.613 17.0977 125.603 16.415C125.57 13.0156 125.559 9.61609 125.548 6.21661C125.548 4.56371 125.548 2.85571 125.548 1.17525C125.535 1.08544 125.552 0.993895 125.596 0.914403C125.64 0.834911 125.708 0.77177 125.791 0.734478C125.989 0.624285 126.16 0.481031 126.342 0.370837C126.451 0.302655 126.576 0.262935 126.705 0.255273C126.834 0.247611 126.963 0.272253 127.08 0.32696C127.197 0.381668 127.299 0.464717 127.376 0.568585C127.453 0.672453 127.502 0.793856 127.521 0.921805C127.586 1.19824 127.621 1.48086 127.625 1.76479C127.662 3.18629 127.69 4.61146 127.708 6.0403C127.708 7.24141 127.708 8.44252 127.708 9.64363L127.724 9.62711Z" fill="white"/>
</svg>
