<svg width="126" height="26" viewBox="0 0 126 26" fill="none" xmlns="http://www.w3.org/2000/svg">
<path d="M123.07 9.3842C122.733 9.3842 122.602 9.49639 122.532 9.80024C121.943 11.9739 121.331 14.1429 120.718 16.3073C120.672 16.4756 120.69 16.6906 120.508 16.8028C120.391 16.728 120.391 16.6205 120.363 16.5223C119.74 14.2692 119.107 12.016 118.465 9.76285C118.418 9.59923 118.437 9.3842 118.133 9.38888C117.264 9.38888 116.39 9.38888 115.464 9.38888C115.525 9.58521 115.562 9.71143 115.609 9.85634L118.802 18.8316C118.872 19.006 118.903 19.1938 118.893 19.3816C118.882 19.5693 118.83 19.7525 118.741 19.9181C118.652 20.0836 118.527 20.2275 118.376 20.3394C118.225 20.4514 118.051 20.5287 117.867 20.5658C117.523 20.6512 117.167 20.6765 116.815 20.6406C116.591 20.6406 116.493 20.678 116.497 20.9258C116.497 21.3933 116.497 21.9028 116.497 22.3889C116.497 22.6647 116.605 22.7582 116.857 22.7582C117.301 22.7582 117.75 22.7582 118.189 22.7582C118.911 22.7534 119.616 22.5399 120.219 22.1434C120.822 21.7469 121.297 21.1844 121.588 20.5238C121.736 20.2198 121.867 19.9076 121.98 19.5889C122.99 16.6688 123.994 13.7456 124.991 10.8193C125.18 10.3657 125.328 9.89645 125.435 9.41693C124.608 9.39355 123.836 9.41693 123.07 9.3842ZM113.361 13.7877C112.426 13.4792 111.467 13.3202 110.518 13.1145C110.154 13.0549 109.804 12.9281 109.485 12.7406C109.392 12.6876 109.311 12.6137 109.251 12.5247C109.19 12.4356 109.151 12.3338 109.136 12.2271C109.121 12.1204 109.131 12.0117 109.164 11.9094C109.198 11.8071 109.255 11.714 109.331 11.6374C109.878 10.9549 111.963 10.9035 112.379 11.9132C112.405 11.996 112.46 12.0667 112.534 12.1122C112.607 12.1577 112.695 12.175 112.781 12.1609C113.384 12.1609 113.992 12.1609 114.599 12.1609C114.875 12.1609 114.912 12.0674 114.87 11.829C114.819 11.4418 114.684 11.0703 114.475 10.7402C114.266 10.4101 113.988 10.1293 113.66 9.91711C113.058 9.53512 112.37 9.30864 111.659 9.25799C110.299 9.13178 108.976 9.22059 107.788 10.0246C106.222 11.0858 106.068 13.8157 108.2 14.6992C108.636 14.8781 109.086 15.0204 109.546 15.1246C110.334 15.2668 111.114 15.4493 111.883 15.6715C112.06 15.7048 112.22 15.7951 112.34 15.9286C112.46 16.0621 112.533 16.2313 112.547 16.4101C112.547 16.5979 112.487 16.7806 112.375 16.9313C112.263 17.082 112.105 17.1927 111.925 17.2469C111.207 17.5435 110.4 17.5435 109.682 17.2469C109.583 17.2204 109.49 17.174 109.41 17.1105C109.329 17.047 109.263 16.9677 109.214 16.8776C109.027 16.4101 108.625 16.4101 108.237 16.4101C108.041 16.4101 107.849 16.4101 107.658 16.4101C107.335 16.4101 107.008 16.4101 106.681 16.4101C106.442 16.4101 106.381 16.4756 106.428 16.7233C106.502 17.1614 106.677 17.5761 106.94 17.9341C107.203 18.2921 107.547 18.5835 107.943 18.7848C109.098 19.3383 110.393 19.5306 111.659 19.3364C112.547 19.2596 113.395 18.9357 114.108 18.4015C115.45 17.3824 115.801 14.5964 113.361 13.7877ZM105.096 12.3853C105.114 11.7706 104.935 11.1663 104.584 10.6614C104.233 10.1564 103.729 9.77756 103.147 9.58054C101.662 9.02328 100.02 9.05843 98.5609 9.6787C98.0871 9.85534 97.6664 10.1505 97.3391 10.5359C97.0117 10.9214 96.7886 11.3843 96.6911 11.8804C96.6443 12.0861 96.6911 12.1656 96.9201 12.1656C97.5559 12.1656 98.1916 12.1656 98.8273 12.1936C98.9395 12.1936 99.0564 12.231 99.1312 12.0908C99.5098 11.3756 100.202 11.2914 100.889 11.2868C102.1 11.2868 102.567 11.8103 102.53 13.0117C102.53 13.2548 102.441 13.2968 102.221 13.3015C101.613 13.3015 101.01 13.3623 100.403 13.3997C99.62 13.4237 98.8457 13.5687 98.1075 13.8298C96.1769 14.5777 95.9805 16.4709 96.5835 17.7704C97.4951 19.7104 100.791 20.0236 102.193 18.3127C102.277 18.2052 102.315 18.0369 102.562 17.9855C102.562 18.2846 102.562 18.5511 102.562 18.8129C102.562 19.0746 102.609 19.2803 102.964 19.2383C103.54 19.2079 104.118 19.2079 104.694 19.2383C105.026 19.2383 105.115 19.1588 105.11 18.8269C105.087 16.6859 105.101 14.545 105.096 12.404V12.3853ZM102.506 15.7697C102.471 16.0946 102.345 16.403 102.143 16.6594C101.94 16.9158 101.669 17.1097 101.361 17.2188C101.034 17.3815 100.67 17.4538 100.306 17.4283C99.9417 17.4028 99.591 17.2805 99.2901 17.0739C99.1372 16.9624 99.0173 16.8115 98.9433 16.6373C98.8692 16.4631 98.8438 16.2721 98.8697 16.0845C98.8956 15.897 98.9719 15.72 99.0903 15.5724C99.2088 15.4248 99.3651 15.312 99.5425 15.2462C100.206 14.9563 100.945 15.0358 101.567 14.9563H101.768C102.609 14.9283 102.614 14.9283 102.506 15.7884V15.7697ZM94.494 16.901C92.8205 16.901 91.147 16.901 89.4782 16.901C89.0622 16.901 88.9874 16.7794 89.0108 16.4055C89.0388 15.6575 89.0435 14.9002 89.0108 14.1523C89.0108 13.783 89.1276 13.7176 89.4782 13.7222C91.0582 13.7222 92.6429 13.7222 94.2276 13.7222C94.5221 13.7222 94.6156 13.6381 94.6015 13.3483C94.5735 12.8921 94.5735 12.4347 94.6015 11.9786C94.6249 11.6374 94.508 11.5626 94.1808 11.5672C92.6102 11.5672 91.0442 11.5672 89.4735 11.5672C89.1463 11.5672 89.0061 11.5158 89.0061 11.1465C89.0388 10.4407 89.0341 9.74415 89.0061 9.02426C89.0061 8.66432 89.0809 8.5568 89.4735 8.5568C91.1611 8.5568 92.8486 8.5568 94.5361 8.5568C94.8119 8.5568 94.9287 8.5007 94.9147 8.19686C94.8867 7.66862 94.8913 7.13572 94.9147 6.60282C94.9147 6.32702 94.8633 6.22885 94.5548 6.22885C91.937 6.22885 89.3193 6.22885 86.7015 6.22885C86.379 6.22885 86.3135 6.32701 86.3135 6.62619C86.3135 8.65029 86.3135 10.6697 86.3135 12.7032C86.3135 14.7366 86.3135 16.7747 86.3135 18.8129C86.3135 19.0887 86.379 19.1868 86.6828 19.1868C89.3006 19.1868 91.9183 19.1868 94.5361 19.1868C94.8072 19.1868 94.9334 19.1448 94.9194 18.8316C94.8914 18.3022 94.8914 17.7716 94.9194 17.2422C94.9194 16.9571 94.7979 16.901 94.494 16.901ZM83.8547 12.1936C83.875 11.6341 83.7273 11.0814 83.4307 10.6065C83.1341 10.1317 82.7022 9.75643 82.1906 9.52912C80.7882 8.87935 78.6753 9.15047 77.7591 10.8053C77.717 10.8848 77.689 10.9969 77.6002 11.0016C77.5113 11.0063 77.4599 10.8661 77.4225 10.7772C76.6279 8.83728 73.6221 8.72976 72.4675 10.2584C72.2993 10.4949 72.1433 10.7398 72 10.9923H71.8972C71.8972 10.5716 71.8972 10.1508 71.8972 9.73012C71.8972 9.48704 71.8364 9.39823 71.5793 9.4029C70.9436 9.4029 70.3032 9.4029 69.6674 9.4029C69.4244 9.4029 69.3355 9.459 69.3355 9.72078C69.3355 12.7935 69.3355 15.8632 69.3355 18.9297C69.3355 19.1915 69.429 19.2476 69.6721 19.2429C70.3078 19.2429 70.9436 19.2429 71.5793 19.2429C71.8878 19.2429 71.9767 19.1728 71.972 18.8549C71.972 17.0833 71.972 15.3116 71.972 13.5446C71.966 13.2785 71.9959 13.0128 72.0608 12.7546C72.1663 12.3414 72.4235 11.983 72.7813 11.7509C73.139 11.5187 73.5711 11.4298 73.9914 11.5018C74.8328 11.5953 75.3003 12.1422 75.347 13.0771C75.347 13.2127 75.347 13.3436 75.347 13.4745C75.347 15.2742 75.347 17.0786 75.347 18.8783C75.347 19.1728 75.4312 19.2523 75.7163 19.2383C76.31 19.2383 76.9037 19.2383 77.4926 19.2383C77.7825 19.2383 77.8666 19.1635 77.8619 18.8736C77.8619 17.6068 77.8619 16.3353 77.8619 15.0685C77.8619 14.386 77.8339 13.7035 77.904 13.0351C77.9118 12.806 77.9681 12.5812 78.0694 12.3755C78.1706 12.1699 78.3144 11.9881 78.4912 11.8423C78.668 11.6964 78.8738 11.5898 79.0949 11.5295C79.316 11.4692 79.5475 11.4565 79.7738 11.4924C80.7508 11.5298 81.2089 12.03 81.2744 13.1379C81.2744 13.2828 81.2744 13.4324 81.2744 13.5773C81.2744 15.335 81.2744 17.0926 81.2744 18.8456C81.2744 19.1541 81.3538 19.2523 81.667 19.2429C82.3028 19.2429 82.9385 19.2429 83.5742 19.2429C83.808 19.2429 83.9108 19.2055 83.9108 18.9391C83.8641 16.6813 83.9015 14.4608 83.8547 12.1936ZM67.8771 9.93581C67.8771 9.29539 67.849 9.25332 67.1852 9.22059C65.853 9.15515 64.8199 9.61793 64.273 10.9221L64.1655 10.8894C64.1655 10.4968 64.1655 10.1088 64.1655 9.7161C64.1655 9.47302 64.1141 9.3842 63.8523 9.38888C63.2165 9.38888 62.5808 9.38888 61.9451 9.38888C61.7067 9.38888 61.6085 9.43563 61.6085 9.70208C61.6085 12.7686 61.6085 15.8352 61.6085 18.9017C61.6085 19.1448 61.6693 19.2383 61.931 19.2289C62.5668 19.2289 63.2025 19.2289 63.8383 19.2289C64.1748 19.2289 64.2496 19.1401 64.2449 18.8129C64.2449 17.1487 64.2449 15.4799 64.2449 13.8157C64.2283 13.5262 64.2712 13.2363 64.371 12.964C64.4708 12.6917 64.6253 12.4427 64.8251 12.2324C65.0248 12.0222 65.2655 11.8551 65.5324 11.7415C65.7992 11.6279 66.0865 11.5702 66.3765 11.5719C66.7898 11.5365 67.206 11.5649 67.6106 11.6561C67.835 11.7075 67.8958 11.6561 67.8864 11.4364C67.8724 10.9408 67.8771 10.436 67.8771 9.93581ZM59.4348 12.4414C59.4676 11.8082 59.2894 11.1821 58.9282 10.661C58.567 10.1399 58.0432 9.75337 57.4388 9.56184C55.9648 9.01981 54.3393 9.06161 52.8951 9.6787C52.4249 9.84891 52.0061 10.1368 51.6788 10.5149C51.3514 10.893 51.1264 11.3486 51.0253 11.8384C50.9785 12.0394 50.9552 12.1656 51.245 12.1609C51.8807 12.1609 52.5165 12.1609 53.1522 12.189C53.2691 12.189 53.3813 12.217 53.4561 12.0815C53.7926 11.441 54.391 11.3101 55.0361 11.2961C56.3262 11.2634 56.9293 11.7168 56.8498 12.9696C56.8498 13.2034 56.7984 13.2968 56.5366 13.3015C55.9289 13.3015 55.3259 13.3576 54.7182 13.395C53.8914 13.4071 53.0732 13.5654 52.3014 13.8625C51.7533 14.1104 51.2972 14.5245 50.9976 15.0462C50.698 15.5679 50.5701 16.1706 50.6322 16.7689C50.6942 17.3673 50.943 17.931 51.3433 18.38C51.7436 18.8291 52.2751 19.1408 52.8624 19.271C54.2274 19.5795 55.5129 19.4019 56.5179 18.2846C56.6067 18.1818 56.6348 18.0088 56.8825 17.9668C56.8825 18.2846 56.8825 18.5838 56.8825 18.9017C56.8825 19.2196 56.9433 19.2383 57.2004 19.2289C57.8081 19.2289 58.4158 19.2009 59.0235 19.2289C59.3647 19.2289 59.4302 19.1354 59.4302 18.8129C59.4348 16.6953 59.4348 14.5683 59.4348 12.4414ZM56.8638 15.3957C56.8972 15.7483 56.8231 16.1026 56.6512 16.4122C56.4794 16.7218 56.2177 16.972 55.9009 17.13C55.575 17.3238 55.2039 17.4285 54.8248 17.4334C54.4457 17.4383 54.072 17.3434 53.7412 17.1581C53.5647 17.0607 53.4208 16.9134 53.3277 16.7346C53.2346 16.5558 53.1963 16.3535 53.2177 16.153C53.2261 15.9605 53.2902 15.7745 53.4022 15.6177C53.5142 15.4609 53.6693 15.3399 53.8487 15.2695C54.4202 15.0731 55.0208 14.9751 55.6251 14.9797C55.8588 14.9517 56.0925 14.9797 56.3356 14.9423C56.7797 14.8769 56.9807 15.0124 56.8638 15.3957ZM48.9591 12.217C48.9556 11.5395 48.7227 10.8832 48.2982 10.3551C47.8737 9.82705 47.2828 9.45844 46.6219 9.30941C44.9717 8.95414 43.3497 9.44497 42.6719 10.8193C42.6391 10.8848 42.6204 10.9595 42.5082 10.9549C42.3961 10.838 42.4521 10.6837 42.4521 10.5482C42.4521 9.02893 42.4521 7.50969 42.4521 5.98577C42.4521 5.70062 42.3774 5.59778 42.0782 5.60713C41.5032 5.60713 40.9236 5.63985 40.3486 5.60713C39.9653 5.60713 39.8484 5.68192 39.8484 6.07459C39.8484 10.2817 39.8484 14.4889 39.8484 18.7334C39.853 18.8066 39.853 18.8799 39.8484 18.9531C39.8484 19.1494 39.9279 19.2009 40.1149 19.2009C40.8254 19.2009 41.5359 19.2009 42.2465 19.2009C42.4101 19.2009 42.4942 19.1494 42.4755 18.9765C42.4755 18.8736 42.4755 18.7661 42.4755 18.6633C42.4755 16.9384 42.4755 15.2134 42.4755 13.4838C42.4584 13.2089 42.5007 12.9336 42.5997 12.6765C42.6986 12.4194 42.8517 12.1867 43.0487 11.9941C43.2457 11.8016 43.4818 11.6538 43.7411 11.5608C44.0003 11.4677 44.2766 11.4317 44.551 11.4551C45.7337 11.4551 46.3367 12.1235 46.3741 13.4651C46.3741 13.5867 46.3741 13.7035 46.3741 13.8204C46.3741 15.4752 46.3741 17.1253 46.3741 18.7801C46.3741 19.1401 46.4816 19.2476 46.8182 19.2009C47.1548 19.1541 47.4119 19.2009 47.7064 19.2009C48.1271 19.2009 48.674 19.3878 48.9404 19.1167C49.2069 18.8456 49.0106 18.3314 49.0059 17.92C48.9872 16.0362 49.09 14.1289 48.9591 12.231V12.217ZM34.0613 6.29897C32.3037 6.29897 30.5414 6.29897 28.7791 6.29897C28.4659 6.29897 28.3817 6.38778 28.3864 6.69163C28.3864 8.71573 28.3864 10.7352 28.3864 12.7686C28.3864 14.8021 28.3864 16.8402 28.3864 18.8783C28.3864 19.1541 28.4472 19.2616 28.7557 19.2523C29.4195 19.2523 30.0879 19.2523 30.7517 19.2523C31.0556 19.2523 31.1163 19.1588 31.1117 18.8783C31.1117 17.7845 31.1117 16.6953 31.1117 15.6061C31.1117 15.3116 31.1958 15.2321 31.4856 15.2415C32.2102 15.2415 32.9347 15.2415 33.6593 15.2415C36.464 15.2695 38.4133 13.3716 38.3339 10.5669C38.3389 10.0046 38.2317 9.44701 38.0187 8.92664C37.8057 8.40627 37.4911 7.93358 37.0933 7.53621C36.6955 7.13883 36.2225 6.82475 35.7019 6.61232C35.1813 6.39988 34.6236 6.29335 34.0613 6.29897ZM33.8416 12.9369C33.0068 13.0311 32.1662 13.0624 31.3267 13.0304C31.0976 13.0304 31.1023 12.9089 31.107 12.7499V8.81858C31.107 8.67367 31.0743 8.51473 31.3127 8.52408C32.1533 8.49053 32.9952 8.51552 33.8323 8.59887C34.3201 8.71515 34.7544 8.99246 35.0652 9.38602C35.376 9.77958 35.545 10.2664 35.545 10.7679C35.545 11.2694 35.376 11.7562 35.0652 12.1497C34.7544 12.5433 34.3201 12.8206 33.8323 12.9369H33.8416ZM21.6878 14.0448C21.2483 13.6241 21.2624 13.6194 21.5802 13.1099C23.1369 10.5342 23.2911 7.84159 21.8841 5.20979C20.1872 2.03573 17.4059 0.605303 13.8018 0.750216C11.977 0.810506 10.2328 1.51614 8.87946 2.7416C7.18727 4.24214 5.60727 5.86423 3.99922 7.44424C2.83526 8.5755 1.66194 9.71143 0.502652 10.838C0.284918 11.0277 0.128621 11.278 0.0536917 11.5569C-0.0212373 11.8358 -0.0114028 12.1307 0.0819412 12.404C0.451231 13.6054 1.86295 13.8952 2.81656 12.9696L10.5576 5.41547C11.0573 4.90254 11.656 4.49637 12.3173 4.22157C12.9785 3.94677 13.6887 3.80905 14.4048 3.81676C14.7273 3.81676 15.0499 3.81675 15.3724 3.89155C18.8129 4.44315 21.0099 8.60822 18.5979 11.8384C18.3361 12.189 18.0042 12.4928 17.7424 12.8481C17.526 13.1054 17.4153 13.4353 17.4327 13.771C17.45 14.1068 17.5942 14.4235 17.8359 14.6572C18.7708 15.5921 19.7057 16.527 20.6874 17.4619C20.9965 17.7338 21.4007 17.8722 21.8116 17.8468C22.2224 17.8214 22.6065 17.6342 22.8798 17.3263C23.0176 17.1828 23.1255 17.0131 23.1969 16.8274C23.2684 16.6416 23.3021 16.4434 23.296 16.2445C23.2899 16.0455 23.2441 15.8498 23.1614 15.6687C23.0787 15.4876 22.9607 15.3249 22.8143 15.1901C22.445 14.7834 22.0664 14.4141 21.6831 14.0448H21.6878ZM12.3106 13.2781C12.1734 13.1375 12.0095 13.0257 11.8284 12.9494C11.6474 12.8731 11.4529 12.8338 11.2565 12.8338C11.06 12.8338 10.8655 12.8731 10.6845 12.9494C10.5035 13.0257 10.3395 13.1375 10.2024 13.2781C8.97295 14.4468 7.76224 15.6154 6.54686 16.8262C6.40582 16.9439 6.29615 17.0948 6.22763 17.2653C6.15911 17.4358 6.13388 17.6206 6.15419 17.8032C6.13161 18.0103 6.15744 18.2199 6.22964 18.4154C6.30183 18.6109 6.41842 18.787 6.57023 18.9297C7.25272 19.6169 8.15958 19.5982 8.96828 18.8503C9.66479 18.2052 10.3286 17.532 10.997 16.8636C11.198 16.6672 11.3663 16.6111 11.5954 16.8355C12.6986 17.92 13.8111 18.9983 14.933 20.0703C15.1621 20.29 15.148 20.4396 14.933 20.65C14.2131 21.3325 13.5306 22.0524 12.8061 22.7208C12.6464 22.8588 12.5173 23.0286 12.4273 23.2195C12.3373 23.4104 12.2882 23.618 12.2834 23.829C12.2785 24.04 12.318 24.2496 12.3992 24.4444C12.4803 24.6392 12.6014 24.8149 12.7547 24.96C13.0553 25.2499 13.4566 25.4119 13.8742 25.4119C14.2919 25.4119 14.6932 25.2499 14.9938 24.96C16.2045 23.8147 17.4059 22.6507 18.5838 21.4727C18.7379 21.3384 18.8608 21.172 18.9438 20.9851C19.0269 20.7983 19.068 20.5956 19.0645 20.3912C19.0609 20.1868 19.0127 19.9856 18.9232 19.8018C18.8337 19.618 18.7051 19.456 18.5465 19.3271C16.4709 17.3045 14.3908 15.2882 12.3059 13.2781H12.3106Z" fill="#FEFEFE"/>
<path d="M22.8805 17.3029C22.6073 17.6108 22.2232 17.7979 21.8123 17.8233C21.4015 17.8487 20.9973 17.7104 20.6882 17.4385C19.7112 16.541 18.7669 15.606 17.8367 14.6337C17.5949 14.4001 17.4508 14.0834 17.4335 13.7476C17.4161 13.4118 17.5268 13.082 17.7432 12.8246C18.005 12.4694 18.3369 12.1655 18.5986 11.8149C21.0107 8.58478 18.8137 4.41971 15.3732 3.86811C15.0506 3.81669 14.7281 3.81669 14.4056 3.79332C13.6895 3.78561 12.9793 3.92333 12.318 4.19813C11.6567 4.47293 11.0581 4.8791 10.5584 5.39203L2.81265 12.9462C1.87774 13.8811 0.447325 13.5819 0.0780349 12.3806C-0.0153091 12.1073 -0.0251435 11.8124 0.0497854 11.5335C0.124714 11.2546 0.281012 11.0043 0.498746 10.8146C1.66739 9.68799 2.83603 8.55206 3.99532 7.42081C5.61272 5.84079 7.18336 4.2187 8.87556 2.71816C10.2289 1.4927 11.9731 0.787068 13.7979 0.726778C17.402 0.581866 20.1833 2.01229 21.8802 5.18635C23.2826 7.81815 23.133 10.5107 21.5763 13.0864C21.2585 13.6193 21.2444 13.624 21.6838 14.0213C22.1233 14.4187 22.4458 14.7599 22.8151 15.1432C22.9651 15.2784 23.0861 15.4425 23.1709 15.6257C23.2558 15.8089 23.3027 16.0073 23.3088 16.2091C23.3149 16.4109 23.2801 16.6118 23.2065 16.7998C23.1329 16.9878 23.022 17.1589 22.8805 17.3029Z" fill="white"/>
<path d="M83.8736 18.9264C83.8736 19.1929 83.7708 19.235 83.537 19.2303C82.9013 19.2303 82.2656 19.2303 81.6298 19.2303C81.3166 19.2303 81.2325 19.1415 81.2372 18.8329C81.2372 17.08 81.2372 15.3223 81.2372 13.5647C81.2372 13.4198 81.2372 13.2702 81.2372 13.1253C81.1717 12.0174 80.7136 11.5172 79.7366 11.4798C79.5102 11.4439 79.2788 11.4565 79.0577 11.5168C78.8366 11.5771 78.6308 11.6838 78.454 11.8296C78.2772 11.9755 78.1334 12.1573 78.0322 12.3629C77.9309 12.5685 77.8746 12.7933 77.8668 13.0224C77.7967 13.6909 77.8294 14.3734 77.8247 15.0559C77.8247 16.3227 77.8247 17.5942 77.8247 18.861C77.8247 19.1508 77.7453 19.2396 77.4554 19.2256C76.8664 19.2256 76.2728 19.2256 75.6791 19.2256C75.394 19.2256 75.3098 19.1602 75.3098 18.8657C75.3098 17.066 75.3098 15.2616 75.3098 13.4618C75.3098 13.3309 75.3098 13.2001 75.3098 13.0645C75.2631 12.1296 74.7956 11.5826 73.9542 11.4892C73.5383 11.4262 73.1138 11.52 72.7631 11.7524C72.4124 11.9847 72.1605 12.3391 72.0563 12.7466C71.9914 13.0048 71.9616 13.2705 71.9675 13.5366C71.9675 15.3036 71.9675 17.0753 71.9675 18.847C71.9675 19.1648 71.8834 19.2443 71.5748 19.235C70.9391 19.2069 70.3034 19.235 69.6676 19.235C69.4245 19.235 69.3311 19.1835 69.3311 18.9218C69.3311 15.849 69.3311 12.7793 69.3311 9.7128C69.3311 9.45102 69.4199 9.39026 69.663 9.39493C70.2987 9.39493 70.9391 9.39493 71.5748 9.39493C71.8319 9.39493 71.9021 9.47907 71.8927 9.72215C71.8927 10.1429 71.8927 10.5636 71.8927 10.9843H71.9956C72.1388 10.7319 72.2948 10.4869 72.463 10.2504C73.6176 8.72179 76.6234 8.848 77.418 10.7693C77.4554 10.8581 77.4601 11.003 77.5957 10.9936C77.7312 10.9843 77.7125 10.8768 77.7546 10.7973C78.6895 9.1425 80.7791 8.87138 82.1861 9.52115C82.6977 9.74846 83.1296 10.1237 83.4262 10.5986C83.7228 11.0734 83.8705 11.6262 83.8502 12.1857C83.9017 14.4622 83.8643 16.6826 83.8736 18.9264Z" fill="white"/>
<path d="M94.9057 18.8742C94.9057 19.1874 94.7935 19.2295 94.5224 19.2295C91.9046 19.2295 89.2868 19.2295 86.6691 19.2295C86.3652 19.2295 86.2998 19.1313 86.2998 18.8555C86.2998 16.8174 86.2998 14.7808 86.2998 12.7458C86.2998 10.7264 86.2998 8.70695 86.2998 6.66882C86.2998 6.36965 86.3652 6.27148 86.6878 6.27148C89.3055 6.27148 91.9233 6.27148 94.5411 6.27148C94.8496 6.27148 94.915 6.36965 94.901 6.64545C94.901 7.17835 94.8776 7.71126 94.901 8.23949C94.901 8.54334 94.7982 8.60411 94.5224 8.59943C92.8348 8.59943 91.1473 8.59943 89.4598 8.59943C89.0812 8.59943 88.9924 8.70695 88.9924 9.06689C89.0204 9.77276 89.0251 10.4693 88.9924 11.1892C88.9924 11.5585 89.1092 11.6146 89.4598 11.6099C91.0305 11.6099 92.5964 11.6099 94.1671 11.6099C94.4943 11.6099 94.6112 11.68 94.5878 12.0212C94.5598 12.4774 94.5598 12.9348 94.5878 13.3909C94.5878 13.6807 94.5083 13.7695 94.2138 13.7649C92.6292 13.7649 91.0445 13.7649 89.4645 13.7649C89.1326 13.7649 88.997 13.8256 88.997 14.1949C89.0297 14.9429 89.0251 15.7002 88.997 16.4481C88.997 16.8221 89.0578 16.9529 89.4645 16.9436C91.1333 16.9155 92.8068 16.9436 94.4803 16.9436C94.7748 16.9436 94.8963 16.9997 94.8823 17.3269C94.8635 17.8427 94.8713 18.3592 94.9057 18.8742Z" fill="white"/>
<path d="M38.312 10.5528C38.3151 9.99366 38.2073 9.43949 37.9949 8.92229C37.7825 8.40509 37.4697 7.93513 37.0746 7.53956C36.6795 7.144 36.2098 6.83068 35.6929 6.61772C35.1759 6.40476 34.6219 6.29639 34.0628 6.29887C32.3052 6.29887 30.5428 6.29887 28.7805 6.29887C28.4673 6.29887 28.3832 6.38769 28.3879 6.69153C28.3879 8.71564 28.3879 10.7351 28.3879 12.7685C28.3879 14.802 28.3879 16.8401 28.3879 18.8782C28.3879 19.154 28.4486 19.2615 28.7572 19.2522C29.421 19.2522 30.0894 19.2522 30.7532 19.2522C31.057 19.2522 31.1178 19.1587 31.1131 18.8782C31.1131 17.7844 31.1131 16.6952 31.1131 15.606C31.1131 15.3115 31.1973 15.232 31.4871 15.2414C32.2117 15.2414 32.9362 15.2414 33.6608 15.2414C36.4562 15.2554 38.4008 13.3482 38.312 10.5528ZM33.8431 12.9368C33.0083 13.031 32.1676 13.0623 31.3282 13.0303C31.0991 13.0303 31.1038 12.9088 31.1085 12.7498V8.81848C31.1085 8.67357 31.0757 8.51463 31.3141 8.52398C32.1547 8.49043 32.9966 8.51542 33.8337 8.59877C34.3215 8.71505 34.7559 8.99236 35.0667 9.38592C35.3774 9.77949 35.5465 10.2663 35.5465 10.7678C35.5465 11.2693 35.3774 11.7561 35.0667 12.1496C34.7559 12.5432 34.3215 12.8205 33.8337 12.9368H33.8431Z" fill="white"/>
<path d="M48.94 19.1361C48.6735 19.4072 48.1266 19.2015 47.7059 19.2202C47.4114 19.2202 47.1122 19.2202 46.8177 19.2202C46.5232 19.2202 46.3503 19.1594 46.3736 18.7995C46.397 17.1447 46.3736 15.4946 46.3736 13.8397C46.3736 13.7229 46.3736 13.606 46.3736 13.4845C46.3362 12.1429 45.7332 11.4791 44.5506 11.4744C44.2761 11.451 43.9999 11.4871 43.7406 11.5801C43.4814 11.6731 43.2452 11.821 43.0482 12.0135C42.8513 12.206 42.6981 12.4388 42.5992 12.6958C42.5003 12.9529 42.4579 13.2283 42.4751 13.5032C42.447 15.2328 42.4751 16.9577 42.4751 18.6826C42.4751 18.7855 42.4751 18.893 42.4751 18.9958C42.4751 19.1688 42.4096 19.2202 42.246 19.2202C41.5355 19.2202 40.8249 19.2202 40.1144 19.2202C39.9274 19.2202 39.8293 19.1688 39.848 18.9725C39.8526 18.8993 39.8526 18.8259 39.848 18.7528C39.848 14.5456 39.848 10.3104 39.848 6.09394C39.848 5.68724 39.9648 5.58908 40.3481 5.62648C40.9231 5.6592 41.5028 5.62648 42.0777 5.62648C42.3769 5.62648 42.4517 5.71997 42.4517 6.00512C42.4517 7.52904 42.4517 9.04828 42.4517 10.5675C42.4517 10.7031 42.3956 10.8574 42.5078 10.9742C42.62 10.9742 42.6387 10.9041 42.6714 10.8387C43.3399 9.46432 44.9713 8.96881 46.6214 9.32876C47.2823 9.47778 47.8732 9.8464 48.2977 10.3745C48.7222 10.9025 48.9552 11.5588 48.9587 12.2364C49.0896 14.1342 48.9867 16.0415 49.0054 17.944C49.0101 18.3507 49.1784 18.8883 48.94 19.1361Z" fill="white"/>
<path d="M18.5762 21.4729C17.3983 22.6509 16.1969 23.8102 14.9862 24.9602C14.6856 25.2501 14.2843 25.4121 13.8666 25.4121C13.449 25.4121 13.0477 25.2501 12.7471 24.9602C12.5938 24.8151 12.4727 24.6394 12.3916 24.4446C12.3104 24.2498 12.2709 24.0402 12.2758 23.8292C12.2806 23.6182 12.3297 23.4106 12.4197 23.2197C12.5097 23.0288 12.6388 22.859 12.7985 22.721C13.509 22.0339 14.2009 21.3187 14.9254 20.6502C15.1451 20.4398 15.1591 20.2902 14.9254 20.0705C13.8035 19.0016 12.691 17.9233 11.5878 16.8357C11.3587 16.6113 11.1904 16.6674 10.9894 16.8638C10.321 17.5322 9.65719 18.2054 8.96068 18.8505C8.15198 19.5984 7.24512 19.6171 6.56263 18.9299C6.41082 18.7872 6.29423 18.6111 6.22204 18.4156C6.14984 18.2201 6.12402 18.0105 6.1466 17.8034C6.12628 17.6207 6.15151 17.4359 6.22003 17.2655C6.28855 17.095 6.39822 16.9441 6.53926 16.8264C7.75464 15.639 8.96536 14.447 10.1948 13.2783C10.3319 13.1377 10.4959 13.0259 10.6769 12.9496C10.8579 12.8733 11.0524 12.834 11.2489 12.834C11.4453 12.834 11.6398 12.8733 11.8208 12.9496C12.0019 13.0259 12.1658 13.1377 12.303 13.2783C14.3816 15.2884 16.4587 17.3047 18.5342 19.3273C18.6932 19.4558 18.8221 19.6176 18.912 19.8012C19.0019 19.9848 19.0506 20.1859 19.0546 20.3903C19.0586 20.5947 19.0178 20.7975 18.9352 20.9845C18.8526 21.1716 18.7301 21.3382 18.5762 21.4729Z" fill="white"/>
<path d="M125.412 9.39343C125.306 9.87296 125.157 10.3422 124.968 10.7958C123.974 13.7346 122.971 16.6702 121.958 19.6028C121.845 19.9215 121.713 20.2337 121.565 20.5377C121.275 21.1983 120.799 21.7608 120.196 22.1573C119.593 22.5538 118.888 22.7673 118.167 22.7721C117.727 22.8002 117.279 22.7721 116.835 22.7721C116.582 22.7721 116.465 22.6786 116.475 22.4028C116.475 21.9354 116.475 21.4259 116.475 20.9397C116.475 20.6919 116.568 20.6405 116.792 20.6545C117.145 20.6904 117.501 20.6651 117.844 20.5797C118.029 20.5426 118.202 20.4653 118.354 20.3533C118.505 20.2414 118.629 20.0975 118.719 19.932C118.808 19.7664 118.859 19.5832 118.87 19.3955C118.88 19.2077 118.849 19.0199 118.779 18.8455L115.61 9.85154C115.563 9.73 115.526 9.60379 115.465 9.38408C116.4 9.38408 117.265 9.38408 118.134 9.38408C118.438 9.38408 118.419 9.59444 118.466 9.75805C119.089 12.0112 119.722 14.2644 120.364 16.5175C120.392 16.6157 120.392 16.7232 120.509 16.798C120.691 16.6858 120.672 16.4708 120.719 16.3025C121.331 14.1382 121.944 11.9691 122.533 9.79544C122.617 9.49159 122.734 9.37006 123.07 9.3794C123.837 9.4168 124.608 9.39343 125.412 9.39343Z" fill="white"/>
<path d="M59.4361 12.4414C59.4688 11.8083 59.2906 11.1821 58.9295 10.661C58.5683 10.14 58.0444 9.7534 57.4401 9.56187C55.966 9.01984 54.3406 9.06164 52.8964 9.67873C52.4262 9.84894 52.0074 10.1368 51.68 10.5149C51.3527 10.893 51.1277 11.3486 51.0266 11.8384C50.9798 12.0394 50.9564 12.1656 51.2463 12.1609C51.882 12.1609 52.5178 12.1609 53.1535 12.189C53.2704 12.189 53.3826 12.217 53.4573 12.0815C53.7939 11.4411 54.3922 11.3102 55.0373 11.2961C56.3275 11.2634 56.9305 11.7169 56.8511 12.9697C56.8511 13.2034 56.7997 13.2969 56.5379 13.3015C55.9302 13.3015 55.3272 13.3576 54.7195 13.395C53.8926 13.4071 53.0744 13.5654 52.3027 13.8625C51.7546 14.1104 51.2984 14.5246 50.9988 15.0462C50.6992 15.5679 50.5714 16.1706 50.6335 16.769C50.6955 17.3673 50.9443 17.931 51.3446 18.3801C51.7449 18.8291 52.2764 19.1409 52.8637 19.271C54.2286 19.5795 55.5141 19.4019 56.5192 18.2847C56.608 18.1818 56.636 18.0089 56.8838 17.9668C56.8838 18.2847 56.8838 18.5838 56.8838 18.9017C56.8838 19.2196 56.9446 19.2383 57.2017 19.2289C57.8094 19.2289 58.417 19.2009 59.0247 19.2289C59.366 19.2289 59.4314 19.1354 59.4314 18.8129C59.4361 16.6953 59.4361 14.5684 59.4361 12.4414ZM56.8651 15.3958C56.8985 15.7483 56.8244 16.1027 56.6525 16.4122C56.4806 16.7218 56.219 16.972 55.9021 17.13C55.5763 17.3239 55.2052 17.4285 54.8261 17.4334C54.447 17.4384 54.0733 17.3434 53.7425 17.1581C53.566 17.0607 53.4221 16.9134 53.329 16.7346C53.2358 16.5558 53.1975 16.3535 53.2189 16.1531C53.2273 15.9605 53.2914 15.7745 53.4035 15.6177C53.5155 15.4609 53.6706 15.3399 53.85 15.2696C54.4214 15.0731 55.0221 14.9751 55.6263 14.9797C55.8601 14.9517 56.0938 14.9797 56.3369 14.9423C56.7809 14.8769 56.982 15.0125 56.8651 15.3958Z" fill="white"/>
<path d="M105.096 12.4037C105.115 11.7891 104.935 11.1848 104.584 10.6798C104.233 10.1749 103.73 9.79601 103.147 9.59899C101.663 9.04173 100.021 9.07688 98.5613 9.69715C98.0875 9.87379 97.6668 10.1689 97.3395 10.5544C97.0121 10.9398 96.789 11.4027 96.6915 11.8989C96.6447 12.1046 96.6915 12.184 96.9205 12.184C97.5563 12.184 98.192 12.184 98.8277 12.2121C98.9399 12.2121 99.0568 12.2495 99.1316 12.1092C99.5102 11.394 100.202 11.3099 100.889 11.3052C102.1 11.3052 102.567 11.8288 102.53 13.0301C102.53 13.2732 102.441 13.3153 102.221 13.32C101.614 13.32 101.011 13.3807 100.403 13.4181C99.6204 13.4421 98.8461 13.5872 98.1079 13.8482C96.1773 14.5961 95.9809 16.4893 96.584 17.7889C97.4955 19.7288 100.791 20.042 102.193 18.3311C102.278 18.2236 102.315 18.0553 102.563 18.0039C102.563 18.3031 102.563 18.5695 102.563 18.8313C102.563 19.0931 102.609 19.2988 102.965 19.2567C103.541 19.2263 104.118 19.2263 104.694 19.2567C105.026 19.2567 105.115 19.1772 105.11 18.8453C105.087 16.6857 105.101 14.5447 105.096 12.4037ZM102.507 15.7882C102.472 16.1131 102.346 16.4215 102.143 16.6779C101.94 16.9343 101.669 17.1282 101.361 17.2373C101.035 17.3999 100.67 17.4722 100.306 17.4467C99.9421 17.4213 99.5915 17.2989 99.2905 17.0924C99.1376 16.9809 99.0177 16.83 98.9437 16.6557C98.8697 16.4815 98.8442 16.2905 98.8701 16.103C98.896 15.9155 98.9723 15.7385 99.0907 15.5909C99.2092 15.4432 99.3655 15.3305 99.543 15.2646C100.207 14.9748 100.945 15.0542 101.567 14.9748H101.768C102.609 14.928 102.614 14.928 102.507 15.7882Z" fill="white"/>
<path d="M114.071 18.4248C113.358 18.959 112.51 19.2828 111.622 19.3597C110.356 19.5538 109.061 19.3616 107.906 18.8081C107.51 18.6067 107.166 18.3154 106.903 17.9574C106.64 17.5994 106.465 17.1847 106.391 16.7466C106.344 16.4988 106.391 16.4287 106.644 16.4334C106.971 16.4334 107.298 16.4334 107.62 16.4334C107.812 16.4334 108.004 16.4334 108.2 16.4334C108.588 16.4334 108.99 16.4053 109.177 16.9009C109.226 16.991 109.292 17.0702 109.373 17.1337C109.453 17.1972 109.546 17.2436 109.645 17.2701C110.363 17.5667 111.17 17.5667 111.888 17.2701C112.068 17.2159 112.226 17.1053 112.338 16.9546C112.45 16.8039 112.51 16.6211 112.51 16.4334C112.496 16.2545 112.423 16.0853 112.303 15.9519C112.183 15.8184 112.023 15.7281 111.846 15.6948C111.077 15.4726 110.297 15.29 109.509 15.1479C109.049 15.0437 108.599 14.9014 108.163 14.7225C106.031 13.8156 106.185 11.0856 107.751 10.0479C108.939 9.24386 110.262 9.15504 111.622 9.28125C112.344 9.31869 113.045 9.53732 113.66 9.917C113.991 10.1277 114.271 10.4079 114.483 10.7381C114.694 11.0682 114.832 11.4404 114.885 11.8289C114.927 12.0673 114.885 12.1702 114.614 12.1608C114.006 12.1608 113.398 12.1608 112.795 12.1608C112.71 12.1749 112.622 12.1576 112.548 12.1121C112.474 12.0665 112.419 11.9959 112.393 11.9131C111.977 10.9033 109.892 10.9781 109.345 11.6373C109.27 11.7139 109.213 11.807 109.179 11.9093C109.145 12.0116 109.135 12.1203 109.15 12.227C109.165 12.3337 109.204 12.4355 109.265 12.5246C109.325 12.6136 109.406 12.6875 109.5 12.7405C109.818 12.928 110.168 13.0548 110.533 13.1144C111.468 13.3388 112.445 13.479 113.375 13.7876C115.801 14.5963 115.45 17.3823 114.071 18.4248Z" fill="white"/>
<path d="M67.8824 11.4405C67.8824 11.6649 67.831 11.7116 67.6066 11.6602C67.202 11.5691 66.7858 11.5407 66.3725 11.5761C66.0825 11.5743 65.7952 11.632 65.5284 11.7456C65.2616 11.8592 65.0208 12.0263 64.8211 12.2366C64.6213 12.4469 64.4668 12.6958 64.367 12.9682C64.2672 13.2405 64.2243 13.5303 64.2409 13.8199C64.2409 15.484 64.2409 17.1529 64.2409 18.817C64.2409 19.1443 64.1708 19.2471 63.8343 19.2331C63.1985 19.205 62.5628 19.2331 61.927 19.2331C61.6653 19.2331 61.6045 19.1489 61.6045 18.9059C61.6045 15.8393 61.6045 12.7728 61.6045 9.70624C61.6045 9.43979 61.7027 9.38837 61.9411 9.39304C62.5768 9.39304 63.2125 9.39304 63.8483 9.39304C64.1101 9.39304 64.1755 9.47719 64.1615 9.72027C64.1615 10.1129 64.1615 10.5009 64.1615 10.8936L64.269 10.9263C64.8159 9.6221 65.849 9.15931 67.1812 9.22476C67.845 9.25748 67.8731 9.29955 67.8731 9.93997C67.8778 10.4355 67.8731 10.9403 67.8824 11.4405Z" fill="white"/>
</svg>
