<svg width="110" height="40" viewBox="0 0 110 40" fill="none" xmlns="http://www.w3.org/2000/svg">
<path d="M75.6301 14.7707L78.3019 14.7707L78.3019 27.5084C78.3019 28.6374 77.2338 28.8121 76.8819 28.8121C76.6582 28.7989 76.4401 28.7361 76.2436 28.6282C76.047 28.5203 75.8768 28.3701 75.7453 28.1883L68.4026 18.8315L68.4026 28.6249L65.7402 28.6249L65.7402 15.6751C65.7402 15.1075 66.2229 14.4089 67.2069 14.4089C67.4344 14.3952 67.662 14.4352 67.8713 14.5257C68.0806 14.6162 68.2658 14.7545 68.412 14.9297L75.6301 24.0245L75.6301 14.7707Z" fill="white"/>
<path d="M7.61882 17.2386L7.61882 20.7318L10.8262 20.7318C12.3831 20.7318 13.1492 20.3856 13.1492 18.9758C13.1492 17.566 12.3863 17.2386 10.8262 17.2386L7.61882 17.2386ZM11.449 14.7715C14.3979 14.7715 15.8085 16.0191 15.8085 18.9384C15.8085 21.0811 14.9086 22.4503 13.2924 22.8339L16.4064 28.6226L13.4543 28.6226L10.6518 23.0335L7.61882 23.0335L7.61882 28.6226L5 28.6226L5 14.7715L11.449 14.7715Z" fill="white"/>
<path d="M42.5547 14.7715L45.2918 14.7715L45.2918 28.6226L42.5547 28.6226L42.5547 14.7715Z" fill="white"/>
<path d="M82.583 22.0596C82.583 25.1786 83.4207 26.2078 85.5848 26.2078L90.8163 26.2078L90.8163 28.6219L85.4665 28.6219C83.9812 28.6219 82.8383 28.4846 81.6457 27.4055C80.3814 26.2671 79.7773 24.4519 79.7773 21.9411C79.7773 17.0413 81.6021 14.7676 85.5412 14.7676L90.8349 14.7676L90.8349 17.1442L85.6035 17.1442C83.4393 17.1442 82.6017 18.6319 82.6017 22.0659" fill="white"/>
<path d="M55.7252 15.9536C55.5633 15.6199 55.5072 15.6074 55.4138 15.6074C55.3204 15.6074 55.2488 15.6074 55.1024 15.9536L48.9431 28.6227L46.1094 28.6227L52.6891 15.0678C53.3929 13.6238 54.2212 13 55.3951 13C56.5691 13 57.3943 13.6238 58.098 15.0678L64.7058 28.6227L61.8846 28.6227L55.7252 15.9536Z" fill="white"/>
<path d="M55.3965 19.8828L51.2207 28.6158L59.5785 28.6158L55.3965 19.8828Z" fill="#929292"/>
<path d="M41.2183 26.2086L33.4708 26.2086L33.4708 14.7715L30.8613 14.7715L30.8613 26.3458C30.8646 26.9511 31.1068 27.5305 31.535 27.9577C31.9632 28.3848 32.5426 28.625 33.147 28.6258L39.8419 28.6258L41.2183 26.2086Z" fill="white"/>
<path d="M19.4429 20.7326C19.7886 18.4682 20.9781 17.1021 23.1796 17.1021C25.8794 17.1021 26.6517 19.2854 26.6579 20.7326L19.4429 20.7326ZM23.0582 14.582C18.7485 14.582 16.5719 17.701 16.5625 21.7057C16.5532 25.7104 19.1595 28.7451 23.4724 28.7513C25.5098 28.7838 27.4873 28.0606 29.0245 26.7209L27.7789 24.6718C27.2091 25.2145 26.1846 26.2593 23.5471 26.2593C21.6133 26.2593 19.4554 24.8589 19.4554 23.1716L19.4554 23.0343L29.2425 23.0343C30.0023 17.5169 27.5267 14.5976 23.0551 14.5976" fill="white"/>
<path d="M94.1792 20.7326C94.5249 18.4682 95.7113 17.1021 97.916 17.1021C100.616 17.1021 101.388 19.2854 101.394 20.7326L94.1792 20.7326ZM97.7945 14.582C93.4848 14.582 91.3082 17.701 91.2989 21.7057C91.2895 25.7104 93.8928 28.7451 98.2087 28.7513C100.245 28.783 102.221 28.0599 103.758 26.7209L102.512 24.6718C101.939 25.2145 100.915 26.2593 98.2803 26.2593C96.3434 26.2593 94.1886 24.8589 94.1886 23.1716L94.1886 23.0343L103.976 23.0343C104.739 17.5169 102.263 14.5976 97.7914 14.5976" fill="white"/>
</svg>
